<?xml version="1.0" encoding="utf-8"?>
<svg version="1.1" xmlns:xlink="http://www.w3.org/1999/xlink" width="711px" height="113px" xmlns="http://www.w3.org/2000/svg">
  <defs>
    <mask fill="white" id="clip77">
      <path d="M 0 113  L 0 0  L 711 0  L 711 113  L 362.136 113  L 84.5616000000041 113  L 0 113  Z " fill-rule="evenodd" />
    </mask>
  </defs>
  <g transform="matrix(1 0 0 1 -20 -170 )">
    <path d="M 0 113  L 0 0  L 711 0  L 711 113  L 362.136 113  L 84.5616000000041 113  L 0 113  Z " fill-rule="nonzero" fill="#ffffff" stroke="none" transform="matrix(1 0 0 1 20 170 )" />
    <path d="M 0 113  L 0 0  L 711 0  L 711 113  L 362.136 113  L 84.5616000000041 113  L 0 113  Z " stroke-width="2" stroke="#797979" fill="none" transform="matrix(1 0 0 1 20 170 )" mask="url(#clip77)" />
  </g>
</svg>