<?xml version="1.0" encoding="utf-8"?>
<svg version="1.1" xmlns:xlink="http://www.w3.org/1999/xlink" width="17px" height="21px" xmlns="http://www.w3.org/2000/svg">
  <g transform="matrix(1 0 0 1 -242 -49 )">
    <path d="M 14.9234527687296 13.302734375  C 15.3627578718784 12.044921875  15.5824104234528 10.7916666666667  15.5824104234528 9.54296875  C 15.5824104234528 9.14192708333333  15.556568946797 8.62467447916667  15.5048859934853 7.9912109375  C 15.4532030401737 7.35774739583333  15.3867535287731 6.91796875  15.3055374592834 6.671875  C 15.2169381107492 6.3984375  15.1541802388708 6.19791666666667  15.1172638436482 6.0703125  C 15.0803474484256 5.94270833333333  15.0471226927253 5.7763671875  15.0175895765472 5.5712890625  C 14.9880564603692 5.3662109375  14.9732899022801 5.14518229166667  14.9732899022801 4.908203125  C 14.9732899022801 4.69856770833333  14.9917480998914 4.38639322916667  15.028664495114 3.9716796875  C 15.0655808903366 3.55696614583333  15.0840390879479 3.24934895833333  15.0840390879479 3.048828125  C 15.0840390879479 2.71158854166667  15.0471226927253 2.4609375  14.9732899022801 2.296875  C 14.9437567861021 2.28776041666667  14.8957654723127 2.283203125  14.8293159609121 2.283203125  C 14.6890336590662 2.283203125  14.4749185667752 2.3037109375  14.1869706840391 2.3447265625  C 13.8990228013029 2.3857421875  13.6812160694897 2.40625  13.5335504885993 2.40625  C 13.0905537459283 2.40625  12.4408251900109 2.296875  11.5843648208469 2.078125  C 10.727904451683 1.859375  10.0818675352877 1.75  9.64625407166124 1.75  C 9.32877307274702 1.75  8.9799131378936 1.80240885416666  8.59967426710098 1.9072265625  C 8.21943539630836 2.01204427083333  7.9056460369164 2.119140625  7.65830618892508 2.228515625  C 7.41096634093377 2.337890625  7.08056460369164 2.49283854166667  6.6671009771987 2.693359375  C 5.65559174809989 3.185546875  4.90988056460369 3.65494791666667  4.4299674267101 4.1015625  C 3.72117263843648 4.76692708333333  3.13235613463627 5.63053385416667  2.66351791530945 6.6923828125  C 2.19467969598263 7.75423177083333  1.86981541802389 8.82975260416667  1.68892508143322 9.9189453125  C 1.50803474484256 11.0081380208333  1.41758957654723 12.140625  1.41758957654723 13.31640625  C 1.41758957654723 13.6809895833333  1.46373507057546 14.2278645833333  1.55602605863192 14.95703125  C 1.64831704668838 15.6861979166667  1.69446254071661 16.2376302083333  1.69446254071661 16.611328125  C 1.69446254071661 16.8209635416667  1.65385450597177 17.1240234375  1.57263843648208 17.5205078125  C 1.4914223669924 17.9169921875  1.45081433224756 18.2154947916667  1.45081433224756 18.416015625  C 1.45081433224756 18.6165364583333  1.49511400651466 18.7828776041667  1.58371335504886 18.9150390625  C 1.67231270358306 19.0472005208333  1.79782844733985 19.11328125  1.96026058631922 19.11328125  C 2.13745928338762 19.11328125  2.40510314875136 19.0631510416667  2.76319218241042 18.962890625  C 3.12128121606949 18.8626302083333  3.39261672095548 18.8125  3.5771986970684 18.8125  C 3.99804560260586 18.8125  4.62377850162866 18.8831380208333  5.45439739413681 19.0244140625  C 6.28501628664495 19.1656901041667  6.91074918566775 19.236328125  7.33159609120521 19.236328125  C 8.66796959826276 19.236328125  9.71639522258415 19.072265625  10.4768729641694 18.744140625  C 11.4293159609121 18.333984375  12.2986970684039 17.6389973958333  13.085016286645 16.6591796875  C 13.871335504886 15.6793619791667  14.4841476655809 14.560546875  14.9234527687296 13.302734375  Z M 16.900325732899 7.6494140625  C 16.9667752442997 8.36490885416666  17 8.98697916666667  17 9.515625  C 17 11.01953125  16.7415852334419 12.5120442708333  16.2247557003257 13.9931640625  C 15.7079261672096 15.4742838541667  14.9843648208469 16.7867838541667  14.0540716612378 17.9306640625  C 13.1237785016287 19.0745442708333  12.0864277958741 19.8971354166667  10.9420195439739 20.3984375  C 10.0264929424539 20.7994791666667  8.82301845819761 21  7.33159609120521 21  C 6.91074918566775 21  6.28317046688382 20.9339192708333  5.44885993485342 20.8017578125  C 4.61454940282302 20.6695963541667  3.99066232356135 20.603515625  3.5771986970684 20.603515625  C 3.4 20.603515625  3.13235613463627 20.6695963541667  2.7742671009772 20.8017578125  C 2.41617806731813 20.9339192708333  2.14484256243214 21  1.96026058631922 21  C 1.42128121606949 21  0.965363735070576 20.7470703125  0.592508143322475 20.2412109375  C 0.219652551574376 19.7353515625  0.0332247557003257 19.1497395833333  0.0332247557003257 18.484375  C 0.0332247557003257 18.265625  0.0738327904451683 17.9557291666667  0.155048859934853 17.5546875  C 0.236264929424539 17.1536458333333  0.276872964169381 16.8483072916667  0.276872964169381 16.638671875  C 0.276872964169381 16.2740885416667  0.230727470141151 15.7249348958333  0.138436482084691 14.9912109375  C 0.0461454940282302 14.2574869791667  0 13.7037760416667  0 13.330078125  C 0 12.318359375  0.0664495114006515 11.3271484375  0.199348534201954 10.3564453125  C 0.332247557003257 9.3857421875  0.533441910966341 8.43098958333333  0.802931596091205 7.4921875  C 1.07242128121607 6.55338541666667  1.44343105320304 5.66927083333333  1.91596091205212 4.83984375  C 2.38849077090119 4.01041666666667  2.94223669923996 3.29947916666666  3.5771986970684 2.70703125  C 4.15309446254072 2.16927083333333  5.00955483170467 1.62239583333333  6.14657980456026 1.06640625  C 7.57893593919653 0.355468750000001  8.74549402823019 0  9.64625407166124 0  C 10.0892508143322 0  10.7371335504886 0.109375000000001  11.5899022801303 0.328125  C 12.442671009772 0.546874999999999  13.0831704668838 0.65625  13.5114006514658 0.65625  C 13.6516829533116 0.65625  13.8621064060803 0.633463541666665  14.142671009772 0.587890624999999  C 14.4232356134636 0.542317708333331  14.6373507057546 0.519531250000001  14.785016286645 0.519531250000001  C 15.3830618892508 0.519531250000001  15.8186753528773 0.749674479166666  16.0918566775244 1.2099609375  C 16.3650380021716 1.67024739583333  16.5016286644951 2.283203125  16.5016286644951 3.048828125  C 16.5016286644951 3.25846354166666  16.4831704668838 3.568359375  16.4462540716612 3.978515625  C 16.4093376764387 4.388671875  16.3908794788274 4.69856770833333  16.3908794788274 4.908203125  C 16.3908794788274 5.02669270833333  16.3982627578719 5.140625  16.4130293159609 5.25  C 16.4277958740499 5.359375  16.4407166123778 5.4345703125  16.4517915309446 5.4755859375  C 16.4628664495114 5.5166015625  16.4905537459283 5.61002604166667  16.5348534201954 5.755859375  C 16.5791530944625 5.90169270833333  16.6086862106406 5.99283854166667  16.6234527687296 6.029296875  C 16.7415852334419 6.39388020833333  16.8338762214984 6.93391927083333  16.900325732899 7.6494140625  Z " fill-rule="nonzero" fill="#a30014" stroke="none" transform="matrix(1 0 0 1 242 49 )" />
  </g>
</svg>