<?xml version="1.0" encoding="utf-8"?>
<svg version="1.1" xmlns:xlink="http://www.w3.org/1999/xlink" width="77px" height="23px" xmlns="http://www.w3.org/2000/svg">
  <g transform="matrix(1 0 0 1 -211 -65 )">
    <path d="M 51 18  L 9 18  L 9 5  L 51 5  L 51 18  Z M 72.7222222222222 2.875  L 72.7222222222222 5.75  C 73.9030671296296 5.75  74.9112413194444 5.974609375  75.7467447916667 6.423828125  C 76.5822482638889 6.873046875  77 7.41510416666666  77 8.05  L 77 14.95  C 77 15.5848958333333  76.5822482638889 16.126953125  75.7467447916667 16.576171875  C 74.9112413194444 17.025390625  73.9030671296296 17.25  72.7222222222222 17.25  L 72.7222222222222 20.125  C 72.7222222222222 20.915625  72.1986400462963 21.5924479166667  71.1514756944444 22.15546875  C 70.1043113425926 22.7184895833333  68.8454861111111 23  67.375 23  L 5.34722222222222 23  C 3.87673611111111 23  2.61791087962963 22.7184895833333  1.57074652777778 22.15546875  C 0.523582175925926 21.5924479166667  0 20.915625  0 20.125  L 0 2.875  C 0 2.084375  0.523582175925926 1.40755208333333  1.57074652777778 0.844531250000001  C 2.61791087962963 0.281510416666663  3.87673611111111 0  5.34722222222222 0  L 67.375 0  C 68.8454861111111 0  70.1043113425926 0.281510416666663  71.1514756944444 0.844531250000001  C 72.1986400462963 1.40755208333333  72.7222222222222 2.084375  72.7222222222222 2.875  Z M 68.4444444444444 14.95  L 72.7222222222222 14.95  L 72.7222222222222 8.05  L 68.4444444444444 8.05  L 68.4444444444444 2.875  C 68.4444444444444 2.70729166666666  68.3441840277778 2.56953125  68.1436631944444 2.46171875  C 67.9431423611111 2.35390625  67.6869212962963 2.3  67.375 2.3  L 5.34722222222222 2.3  C 5.03530092592593 2.3  4.77907986111111 2.35390625  4.57855902777778 2.46171875  C 4.37803819444444 2.56953125  4.27777777777778 2.70729166666666  5 2.875  L 5 20.125  C 4.27777777777778 20.2927083333333  4.37803819444444 20.43046875  4.57855902777778 20.53828125  C 4.77907986111111 20.64609375  5.03530092592593 20.7  5.34722222222222 20.7  L 67.375 20.7  C 67.6869212962963 20.7  67.9431423611111 20.64609375  68.1436631944444 20.53828125  C 68.3441840277778 20.43046875  68.4444444444444 20.2927083333333  68.4444444444444 20.125  L 68.4444444444444 14.95  Z " fill-rule="nonzero" fill="#00bfbf" stroke="none" transform="matrix(1 0 0 1 211 65 )" />
  </g>
</svg>