<?xml version="1.0" encoding="utf-8"?>
<svg version="1.1" xmlns:xlink="http://www.w3.org/1999/xlink" width="29px" height="36px" xmlns="http://www.w3.org/2000/svg">
  <g transform="matrix(1 0 0 1 -313 -638 )">
    <path d="M 3.66695601851852 0.87890625  C 4.0865162037037 1.46484375  4.2962962962963 2.171875  4.2962962962963 3  C 4.2962962962963 4.125  3.93827160493827 4.984375  3.22222222222222 5.578125  L 3.22222222222222 35.25  C 3.22222222222222 35.453125  3.16907793209877 35.62890625  3.06278935185185 35.77734375  C 2.95650077160494 35.92578125  2.83063271604938 36  2.68518518518519 36  L 1.61111111111111 36  C 1.46566358024691 36  1.33979552469136 35.92578125  1.23350694444444 35.77734375  C 1.12721836419753 35.62890625  1.07407407407407 35.453125  1 35.25  L 1 5.578125  C 0.358024691358025 4.984375  0 4.125  0 3  C 0 2.171875  0.209780092592593 1.46484375  0.629340277777778 0.87890625  C 1.04890046296296 0.292968750000001  1.55516975308642 0  2.14814814814815 0  C 2.74112654320988 0  3.24739583333333 0.292968750000001  3.66695601851852 0.87890625  Z M 28.6811342592593 3.4453125  C 28.8937114197531 3.7421875  29 4.09375  29 4.5  L 29 22.3828125  C 29 22.7734375  28.9300733024691 23.07421875  28.7902199074074 23.28515625  C 28.6503665123457 23.49609375  28.4293981481482 23.7109375  28.1273148148148 23.9296875  C 25.7218364197531 25.7421875  23.657600308642 26.6484375  21.9346064814815 26.6484375  C 21.2521219135803 26.6484375  20.5612461419753 26.4765625  19.8619791666667 26.1328125  C 19.162712191358 25.7890625  18.5557484567901 25.4140625  18.041087962963 25.0078125  C 17.5264274691358 24.6015625  16.8803047839506 24.2265625  16.1027199074074 23.8828125  C 15.3251350308642 23.5390625  14.5279706790123 23.3671875  13.7112268518519 23.3671875  C 11.5630787037037 23.3671875  8.96739969135803 24.5078125  5.92418981481481 26.7890625  C 5.73398919753086 26.9296875  5.54938271604938 27  5.37037037037037 27  C 5.07947530864198 27  4.82773919753086 26.8515625  4.61516203703704 26.5546875  C 4.40258487654321 26.2578125  4.2962962962963 25.90625  4.2962962962963 25.5  L 4.2962962962963 8.109375  C 4.2962962962963 7.609375  4.46971450617284 7.1796875  4.81655092592593 6.8203125  C 5.05150462962963 6.6015625  5.49344135802469 6.265625  6.14236111111111 5.8125  C 8.78279320987654 3.9375  11.1379243827161 3  13.2077546296296 3  C 14.404899691358 3  15.5237268518519 3.2265625  16.5642361111111 3.6796875  C 17.6047453703704 4.1328125  18.8298611111111 4.82031249999999  20.2395833333333 5.7421875  C 20.664737654321 6.0390625  21.1570216049383 6.1875  21.7164351851852 6.1875  C 22.3206018518519 6.1875  22.977912808642 6.0234375  23.6883680555556 5.6953125  C 24.3988233024691 5.3671875  25.0141782407407 5  25.5344328703704 4.59375  C 26.0546875 4.18749999999999  26.5469714506173 3.8203125  27.0112847222222 3.4921875  C 27.4755979938272 3.1640625  27.7804783950617 3  27.9259259259259 3  C 28.2168209876543 3  28.4685570987654 3.1484375  28.6811342592593 3.4453125  Z " fill-rule="nonzero" fill="#d9001b" stroke="none" transform="matrix(1 0 0 1 313 638 )" />
  </g>
</svg>