<?xml version="1.0" encoding="utf-8"?>
<svg version="1.1" xmlns:xlink="http://www.w3.org/1999/xlink" width="22px" height="25px" xmlns="http://www.w3.org/2000/svg">
  <g transform="matrix(1 0 0 1 -100 -904 )">
    <path d="M 2.7818287037037 0.6103515625  C 3.10011574074074 1.01725260416667  3.25925925925926 1.50824652777778  3.25925925925926 2.08333333333333  C 3.25925925925926 2.86458333333333  2.98765432098765 3.46137152777778  2.44444444444444 3.87369791666667  L 2.44444444444444 24.4791666666667  C 2.44444444444444 24.6202256944444  2.40412808641975 24.7422960069444  2.32349537037037 24.8453776041667  C 2.24286265432099 24.9484592013889  2.14737654320988 25  2.03703703703704 25  L 1.22222222222222 25  C 1.11188271604938 25  1.01639660493827 24.9484592013889  0.935763888888889 24.8453776041667  C 0.855131172839506 24.7422960069444  0.814814814814815 24.6202256944444  1 24.4791666666667  L 1 3.87369791666667  C 0.271604938271605 3.46137152777778  0 2.86458333333333  0 2.08333333333333  C 0 1.50824652777778  0.159143518518519 1.01725260416667  0.477430555555556 0.6103515625  C 0.795717592592593 0.203450520833334  1.17978395061728 0  1.62962962962963 0  C 2.07947530864198 0  2.46354166666667 0.203450520833334  2.7818287037037 0.6103515625  Z M 21.7581018518519 2.392578125  C 21.9193672839506 2.59874131944444  22 2.84288194444444  22 3.125  L 22 15.5436197916667  C 22 15.8148871527778  21.9469521604938 16.0237630208333  21.8408564814815 16.1702473958333  C 21.7347608024691 16.3167317708333  21.5671296296296 16.4659288194444  21.337962962963 16.6178385416667  C 19.5131172839506 17.8765190972222  17.9471450617284 18.505859375  16.6400462962963 18.505859375  C 16.1222993827161 18.505859375  15.5981867283951 18.3865017361111  15.0677083333333 18.1477864583333  C 14.5372299382716 17.9090711805556  14.076774691358 17.6486545138889  13.6863425925926 17.3665364583333  C 13.2959104938272 17.0844184027778  12.8057484567901 16.8240017361111  12.2158564814815 16.5852864583333  C 11.6259645061728 16.3465711805556  11.0212191358025 16.2272135416667  10.4016203703704 16.2272135416667  C 8.77199074074074 16.2272135416667  6.80285493827161 17.0193142361111  4.49421296296296 18.603515625  C 4.34992283950617 18.701171875  4.20987654320988 18.75  4.07407407407407 18.75  C 3.8533950617284 18.75  3.66242283950617 18.6469184027778  3.50115740740741 18.4407552083333  C 3.33989197530864 18.2345920138889  3.25925925925926 17.9904513888889  3.25925925925926 17.7083333333333  L 3.25925925925926 5.63151041666667  C 3.25925925925926 5.28428819444444  3.39081790123457 4.98589409722222  3.65393518518519 4.736328125  C 3.83217592592593 4.58441840277778  4.16743827160494 4.35112847222222  4.65972222222222 4.03645833333333  C 6.66280864197531 2.734375  8.44945987654321 2.08333333333333  10.0196759259259 2.08333333333333  C 10.9278549382716 2.08333333333333  11.7766203703704 2.24066840277778  12.5659722222222 2.55533854166667  C 13.3553240740741 2.87000868055556  14.2847222222222 3.34743923611111  15.3541666666667 3.98763020833333  C 15.6766975308642 4.19379340277778  16.0501543209877 4.296875  16.474537037037 4.296875  C 16.9328703703704 4.296875  17.4315200617284 4.18294270833333  17.9704861111111 3.955078125  C 18.5094521604938 3.72721354166667  18.9762731481481 3.47222222222222  19.3709490740741 3.19010416666667  C 19.765625 2.90798611111111  20.1390817901235 2.65299479166667  20.4913194444444 2.42513020833333  C 20.8435570987654 2.197265625  21.0748456790123 2.08333333333333  21.1851851851852 2.08333333333333  C 21.4058641975309 2.08333333333333  21.5968364197531 2.18641493055556  21.7581018518519 2.392578125  Z " fill-rule="nonzero" fill="#d9001b" stroke="none" transform="matrix(1 0 0 1 100 904 )" />
  </g>
</svg>