<?xml version="1.0" encoding="utf-8"?>
<svg version="1.1" xmlns:xlink="http://www.w3.org/1999/xlink" width="59px" height="67px" xmlns="http://www.w3.org/2000/svg">
  <defs>
    <filter x="579px" y="18px" width="59px" height="67px" filterUnits="userSpaceOnUse" id="filter52">
      <feOffset dx="1" dy="1" in="SourceAlpha" result="shadowOffsetInner" />
      <feGaussianBlur stdDeviation="2.5" in="shadowOffsetInner" result="shadowGaussian" />
      <feComposite in2="shadowGaussian" operator="atop" in="SourceAlpha" result="shadowComposite" />
      <feColorMatrix type="matrix" values="0 0 0 0 0  0 0 0 0 0  0 0 0 0 0  0 0 0 0.698039215686274 0  " in="shadowComposite" />
    </filter>
    <g id="widget53">
      <path d="M 607.5 22  C 621.22 22  632 34.54  632 50.5  C 632 66.46  621.22 79  607.5 79  C 593.78 79  583 66.46  583 50.5  C 583 34.54  593.78 22  607.5 22  Z " fill-rule="nonzero" fill="#009dd9" stroke="none" />
      <path d="M 607.5 22.5  C 620.94 22.5  631.5 34.82  631.5 50.5  C 631.5 66.18  620.94 78.5  607.5 78.5  C 594.06 78.5  583.5 66.18  583.5 50.5  C 583.5 34.82  594.06 22.5  607.5 22.5  Z " stroke-width="1" stroke="#ffffff" fill="none" />
    </g>
  </defs>
  <g transform="matrix(1 0 0 1 -579 -18 )">
    <use xlink:href="#widget53" filter="url(#filter52)" />
    <use xlink:href="#widget53" />
  </g>
</svg>