<?xml version="1.0" encoding="utf-8"?>
<svg version="1.1" xmlns:xlink="http://www.w3.org/1999/xlink" width="25px" height="24px" xmlns="http://www.w3.org/2000/svg">
  <g transform="matrix(1 0 0 1 -11 -800 )">
    <path d="M 11 800  L 36 800  L 36 824  L 11 824  L 11 800  " fill-rule="nonzero" fill="#cccccc" stroke="none" />
    <path d="M 13 802  L 34 802  L 34 822  L 13 822  L 13 802  " fill-rule="nonzero" fill="#ffffff" stroke="none" />
    <path d="M 25.8 807.2  C 24.792 807.2  24 806.408  24 805.4  C 24 804.392  24.792 803.6  25.8 803.6  C 26.808 803.6  27.6 804.392  27.6 805.4  C 27.6 806.408  26.808 807.2  25.8 807.2  " fill-rule="nonzero" fill="#cccccc" stroke="none" />
    <path d="M 14 822  L 14 811.55  L 19 806.8  L 26 811.056  L 30 809.65  L 34 811.056  L 34 822  L 14 822  " fill-rule="nonzero" fill="#169bd5" stroke="none" />
  </g>
</svg>