<?xml version="1.0" encoding="utf-8"?>
<svg version="1.1" xmlns:xlink="http://www.w3.org/1999/xlink" width="24px" height="24px" xmlns="http://www.w3.org/2000/svg">
  <g transform="matrix(1 0 0 1 -93 -800 )">
    <path d="M 23.6041666666667 9.50480769230769  C 23.8680555555556 9.6875  24 9.90384615384615  24 10.1538461538462  L 24 12  C 24 14.125  22.9756944444444 15.9735576923077  20.9270833333333 17.5456730769231  C 18.8784722222222 19.1177884615385  16.3472222222222 20.0192307692308  13.3333333333333 20.25  L 13.3333333333333 22.1538461538462  L 18.6666666666667 22.1538461538462  C 19.0277777777778 22.1538461538462  19.3402777777778 22.2451923076923  19.6041666666667 22.4278846153846  C 19.8680555555556 22.6105769230769  20 22.8269230769231  20 23.0769230769231  C 20 23.3269230769231  19.8680555555556 23.5432692307692  19.6041666666667 23.7259615384615  C 19.3402777777778 23.9086538461538  19.0277777777778 24  18.6666666666667 24  L 5.33333333333333 24  C 4.97222222222222 24  4.65972222222222 23.9086538461538  4.39583333333333 23.7259615384615  C 4.13194444444444 23.5432692307692  4 23.3269230769231  4 23.0769230769231  C 4 22.8269230769231  4.13194444444444 22.6105769230769  4.39583333333333 22.4278846153846  C 4.65972222222222 22.2451923076923  4.97222222222222 22.1538461538462  5.33333333333333 22.1538461538462  L 10.6666666666667 22.1538461538462  L 10.6666666666667 20.25  C 7.65277777777778 20.0192307692308  5.12152777777778 19.1177884615385  3.07291666666667 17.5456730769231  C 1.02430555555556 15.9735576923077  0 14.125  0 12  L 0 10.1538461538462  C 0 9.90384615384615  0.131944444444444 9.6875  0.395833333333333 9.50480769230769  C 0.659722222222222 9.32211538461538  0.972222222222222 9.23076923076923  1.33333333333333 9.23076923076923  C 1.69444444444444 9.23076923076923  2.00694444444444 9.32211538461538  2.27083333333333 9.50480769230769  C 2.53472222222222 9.6875  2.66666666666667 9.90384615384615  2.66666666666667 10.1538461538462  L 2.66666666666667 12  C 2.66666666666667 13.7788461538462  3.57986111111111 15.3004807692308  5.40625 16.5649038461538  C 7.23263888888889 17.8293269230769  9.43055555555556 18.4615384615385  12 18.4615384615385  C 14.5694444444444 18.4615384615385  16.7673611111111 17.8293269230769  18.59375 16.5649038461538  C 20.4201388888889 15.3004807692308  21.3333333333333 13.7788461538462  21.3333333333333 12  L 21.3333333333333 10.1538461538462  C 21.3333333333333 9.90384615384615  21.4652777777778 9.6875  21.7291666666667 9.50480769230769  C 21.9930555555556 9.32211538461538  22.3055555555556 9.23076923076923  22.6666666666667 9.23076923076923  C 23.0277777777778 9.23076923076923  23.3402777777778 9.32211538461538  23.6041666666667 9.50480769230769  Z M 16.7083333333333 1.35576923076923  C 18.0138888888889 2.25961538461538  18.6666666666667 3.34615384615384  18.6666666666667 4.61538461538462  L 18.6666666666667 12  C 18.6666666666667 13.2692307692308  18.0138888888889 14.3557692307692  16.7083333333333 15.2596153846154  C 15.4027777777778 16.1634615384615  13.8333333333333 16.6153846153846  12 16.6153846153846  C 10.1666666666667 16.6153846153846  8.59722222222223 16.1634615384615  7.29166666666667 15.2596153846154  C 5.98611111111111 14.3557692307692  5.33333333333333 13.2692307692308  5.33333333333333 12  L 5.33333333333333 4.61538461538462  C 5.33333333333333 3.34615384615384  5.98611111111111 2.25961538461538  7.29166666666667 1.35576923076923  C 8.59722222222223 0.451923076923079  10.1666666666667 0  12 0  C 13.8333333333333 0  15.4027777777778 0.451923076923079  16.7083333333333 1.35576923076923  Z " fill-rule="nonzero" fill="#000000" stroke="none" transform="matrix(1 0 0 1 93 800 )" />
  </g>
</svg>