<?xml version="1.0" encoding="utf-8"?>
<svg version="1.1" xmlns:xlink="http://www.w3.org/1999/xlink" width="83px" height="77px" xmlns="http://www.w3.org/2000/svg">
  <defs>
    <filter x="14px" y="108px" width="83px" height="77px" filterUnits="userSpaceOnUse" id="filter34">
      <feOffset dx="1" dy="1" in="SourceAlpha" result="shadowOffsetInner" />
      <feGaussianBlur stdDeviation="2.5" in="shadowOffsetInner" result="shadowGaussian" />
      <feComposite in2="shadowGaussian" operator="atop" in="SourceAlpha" result="shadowComposite" />
      <feColorMatrix type="matrix" values="0 0 0 0 0  0 0 0 0 0  0 0 0 0 0  0 0 0 0.698039215686274 0  " in="shadowComposite" />
    </filter>
    <g id="widget35">
      <path d="M 54.5 112  C 74.94 112  91 126.74  91 145.5  C 91 164.26  74.94 179  54.5 179  C 34.06 179  18 164.26  18 145.5  C 18 126.74  34.06 112  54.5 112  Z " fill-rule="nonzero" fill="#009dd9" stroke="none" />
      <path d="M 54.5 112.5  C 74.66 112.5  90.5 127.02  90.5 145.5  C 90.5 163.98  74.66 178.5  54.5 178.5  C 34.34 178.5  18.5 163.98  18.5 145.5  C 18.5 127.02  34.34 112.5  54.5 112.5  Z " stroke-width="1" stroke="#ffffff" fill="none" />
    </g>
  </defs>
  <g transform="matrix(1 0 0 1 -14 -108 )">
    <use xlink:href="#widget35" filter="url(#filter34)" />
    <use xlink:href="#widget35" />
  </g>
</svg>