<?xml version="1.0" encoding="utf-8"?>
<svg version="1.1" xmlns:xlink="http://www.w3.org/1999/xlink" width="83px" height="77px" xmlns="http://www.w3.org/2000/svg">
  <defs>
    <filter x="279px" y="108px" width="83px" height="77px" filterUnits="userSpaceOnUse" id="filter36">
      <feOffset dx="1" dy="1" in="SourceAlpha" result="shadowOffsetInner" />
      <feGaussianBlur stdDeviation="2.5" in="shadowOffsetInner" result="shadowGaussian" />
      <feComposite in2="shadowGaussian" operator="atop" in="SourceAlpha" result="shadowComposite" />
      <feColorMatrix type="matrix" values="0 0 0 0 0  0 0 0 0 0  0 0 0 0 0  0 0 0 0.698039215686274 0  " in="shadowComposite" />
    </filter>
    <g id="widget37">
      <path d="M 319.5 112  C 339.94 112  356 126.74  356 145.5  C 356 164.26  339.94 179  319.5 179  C 299.06 179  283 164.26  283 145.5  C 283 126.74  299.06 112  319.5 112  Z " fill-rule="nonzero" fill="#ffffff" stroke="none" />
      <path d="M 319.5 112.5  C 339.66 112.5  355.5 127.02  355.5 145.5  C 355.5 163.98  339.66 178.5  319.5 178.5  C 299.34 178.5  283.5 163.98  283.5 145.5  C 283.5 127.02  299.34 112.5  319.5 112.5  Z " stroke-width="1" stroke="#ffffff" fill="none" />
    </g>
  </defs>
  <g transform="matrix(1 0 0 1 -279 -108 )">
    <use xlink:href="#widget37" filter="url(#filter36)" />
    <use xlink:href="#widget37" />
  </g>
</svg>