<?xml version="1.0" encoding="utf-8"?>
<svg version="1.1" xmlns:xlink="http://www.w3.org/1999/xlink" width="46px" height="23px" xmlns="http://www.w3.org/2000/svg">
  <defs>
    <mask fill="white" id="clip57">
      <path d="M 0 18  L 0 5  C 0 2.2  2.8111111111111 0  6.38888888888889 0  L 25.2999999999991 0  L 39.6111111111111 0  C 43.1888888888889 0  46 2.2  46 5  L 46 18  C 46 20.8  43.1888888888889 23  39.6111111111111 23  L 6.38888888888889 23  C 2.8111111111111 23  0 20.8  0 18  Z " fill-rule="evenodd" />
    </mask>
  </defs>
  <g transform="matrix(1 0 0 1 -280 -55 )">
    <path d="M 0 18  L 0 5  C 0 2.2  2.8111111111111 0  6.38888888888889 0  L 25.2999999999991 0  L 39.6111111111111 0  C 43.1888888888889 0  46 2.2  46 5  L 46 18  C 46 20.8  43.1888888888889 23  39.6111111111111 23  L 6.38888888888889 23  C 2.8111111111111 23  0 20.8  0 18  Z " fill-rule="nonzero" fill="#ffffff" stroke="none" transform="matrix(1 0 0 1 280 55 )" />
    <path d="M 0 18  L 0 5  C 0 2.2  2.8111111111111 0  6.38888888888889 0  L 25.2999999999991 0  L 39.6111111111111 0  C 43.1888888888889 0  46 2.2  46 5  L 46 18  C 46 20.8  43.1888888888889 23  39.6111111111111 23  L 6.38888888888889 23  C 2.8111111111111 23  0 20.8  0 18  Z " stroke-width="2" stroke="#797979" fill="none" transform="matrix(1 0 0 1 280 55 )" mask="url(#clip57)" />
  </g>
</svg>