<?xml version="1.0" encoding="utf-8"?>
<svg version="1.1" xmlns:xlink="http://www.w3.org/1999/xlink" width="36px" height="38px" xmlns="http://www.w3.org/2000/svg">
  <g transform="matrix(1 0 0 1 -51 -248 )">
    <path d="M 14.184375 17.2758413461538  C 15.240625 15.9893830128205  16.5125 15.3461538461538  18 15.3461538461538  C 19.4875 15.3461538461538  20.759375 15.9893830128205  21.815625 17.2758413461538  C 22.871875 18.5622996794872  23.4 20.1113782051282  23.4 21.9230769230769  C 23.4 23.7347756410256  22.871875 25.2838541666667  21.815625 26.5703125  C 20.759375 27.8567708333333  19.4875 28.5  18 28.5  C 16.5125 28.5  15.240625 27.8567708333333  14.184375 26.5703125  C 13.128125 25.2838541666667  12.6 23.7347756410256  12.6 21.9230769230769  C 12.6 20.1113782051282  13.128125 18.5622996794872  14.184375 17.2758413461538  Z M 27 5.84615384615385  L 31.2 5.84615384615385  C 32.525 5.84615384615385  33.65625 6.41706730769231  34.59375 7.55889423076923  C 35.53125 8.70072115384615  36 10.0785256410256  36 11.6923076923077  L 36 32.1538461538462  C 36 33.7676282051282  35.53125 35.1454326923077  34.59375 36.2872596153846  C 33.65625 37.4290865384615  32.525 38  31.2 38  L 4.8 38  C 3.475 38  2.34375 37.4290865384615  1.40625 36.2872596153846  C 0.46875 35.1454326923077  0 33.7676282051282  0 32.1538461538462  L 0 11.6923076923077  C 0 10.0785256410256  0.46875 8.70072115384615  1.40625 7.55889423076923  C 2.34375 6.41706730769231  3.475 5.84615384615385  4.8 5.84615384615385  L 9 5.84615384615385  L 9.95625 2.74038461538461  C 10.19375 1.99439102564102  10.628125 1.35116185897436  11.259375 0.810697115384614  C 11.890625 0.270232371794876  12.5375 0  13.2 0  L 22.8 0  C 23.4625 0  24.109375 0.270232371794876  24.740625 0.810697115384614  C 25.371875 1.35116185897436  25.80625 1.99439102564102  26.04375 2.74038461538461  L 27 5.84615384615385  Z M 12.065625 29.1508413461538  C 13.709375 31.1528445512821  15.6875 32.1538461538462  18 32.1538461538462  C 20.3125 32.1538461538462  22.290625 31.1528445512821  23.934375 29.1508413461538  C 25.578125 27.1488381410256  26.4 24.7395833333333  26.4 21.9230769230769  C 26.4 19.1065705128205  25.578125 16.6973157051282  23.934375 14.6953125  C 22.290625 12.6933092948718  20.3125 11.6923076923077  18 11.6923076923077  C 15.6875 11.6923076923077  13.709375 12.6933092948718  12.065625 14.6953125  C 10.421875 16.6973157051282  9.6 19.1065705128205  9.6 21.9230769230769  C 9.6 24.7395833333333  10.421875 27.1488381410256  12.065625 29.1508413461538  Z " fill-rule="nonzero" fill="#000000" stroke="none" transform="matrix(1 0 0 1 51 248 )" />
  </g>
</svg>