<?xml version="1.0" encoding="utf-8"?>
<svg version="1.1" xmlns:xlink="http://www.w3.org/1999/xlink" width="31px" height="37px" xmlns="http://www.w3.org/2000/svg">
  <g transform="matrix(1 0 0 1 -102 -248 )">
    <path d="M 30.4887152777778 14.6532451923077  C 30.8295717592593 14.9348958333333  31 15.2684294871795  31 15.6538461538462  L 31 18.5  C 31 21.7760416666667  29.6769386574074 24.6259014423077  27.0308159722222 27.0495793269231  C 24.384693287037 29.4732572115385  21.115162037037 30.8629807692308  17.2222222222222 31.21875  L 17.2222222222222 34.1538461538462  L 24.1111111111111 34.1538461538462  C 24.5775462962963 34.1538461538462  24.9811921296296 34.294671474359  25.3220486111111 34.5763221153846  C 25.6629050925926 34.8579727564103  25.8333333333333 35.1915064102564  25.8333333333333 35.5769230769231  C 25.8333333333333 35.9623397435897  25.6629050925926 36.2958733974359  25.3220486111111 36.5775240384615  C 24.9811921296296 36.8591746794872  24.5775462962963 37  24.1111111111111 37  L 6.88888888888889 37  C 6.4224537037037 37  6.01880787037037 36.8591746794872  5.67795138888889 36.5775240384615  C 5.33709490740741 36.2958733974359  5.16666666666667 35.9623397435897  5.16666666666667 35.5769230769231  C 5.16666666666667 35.1915064102564  5.33709490740741 34.8579727564103  5.67795138888889 34.5763221153846  C 6.01880787037037 34.294671474359  6.4224537037037 34.1538461538462  6.88888888888889 34.1538461538462  L 13.7777777777778 34.1538461538462  L 13.7777777777778 31.21875  C 9.88483796296296 30.8629807692308  6.61530671296296 29.4732572115385  3.96918402777778 27.0495793269231  C 1.32306134259259 24.6259014423077  0 21.7760416666667  0 18.5  L 0 15.6538461538462  C 0 15.2684294871795  0.170428240740741 14.9348958333333  0.511284722222222 14.6532451923077  C 0.852141203703704 14.3715945512821  1.25578703703704 14.2307692307692  1.72222222222222 14.2307692307692  C 2.18865740740741 14.2307692307692  2.59230324074074 14.3715945512821  2.93315972222222 14.6532451923077  C 3.2740162037037 14.9348958333333  3.44444444444444 15.2684294871795  3.44444444444444 15.6538461538462  L 3.44444444444444 18.5  C 3.44444444444444 21.2423878205128  4.62398726851852 23.5882411858974  6.98307291666667 25.5375600961538  C 9.34215856481481 27.4868790064103  12.1811342592593 28.4615384615385  15.5 28.4615384615385  C 18.8188657407407 28.4615384615385  21.6578414351852 27.4868790064103  24.0169270833333 25.5375600961538  C 26.3760127314815 23.5882411858974  27.5555555555556 21.2423878205128  27.5555555555556 18.5  L 27.5555555555556 15.6538461538462  C 27.5555555555556 15.2684294871795  27.7259837962963 14.9348958333333  28.0668402777778 14.6532451923077  C 28.4076967592593 14.3715945512821  28.8113425925926 14.2307692307692  29.2777777777778 14.2307692307692  C 29.744212962963 14.2307692307692  30.1478587962963 14.3715945512821  30.4887152777778 14.6532451923077  Z M 21.5815972222222 2.09014423076923  C 23.2679398148148 3.48357371794872  24.1111111111111 5.15865384615384  24 7.11538461538462  L 24 18.5  C 24.1111111111111 20.4567307692308  23.2679398148148 22.1318108974359  21.5815972222222 23.5252403846154  C 19.8952546296296 24.9186698717949  17.8680555555556 25.6153846153846  15.5 25.6153846153846  C 13.1319444444444 25.6153846153846  11.1047453703704 24.9186698717949  9.41840277777778 23.5252403846154  C 7.73206018518519 22.1318108974359  6.88888888888889 20.4567307692308  7 18.5  L 7 7.11538461538462  C 6.88888888888889 5.15865384615384  7.73206018518519 3.48357371794872  9.41840277777778 2.09014423076923  C 11.1047453703704 0.696714743589747  13.1319444444444 0  15.5 0  C 17.8680555555556 0  19.8952546296296 0.696714743589747  21.5815972222222 2.09014423076923  Z " fill-rule="nonzero" fill="#000000" stroke="none" transform="matrix(1 0 0 1 102 248 )" />
  </g>
</svg>