<?xml version="1.0" encoding="utf-8"?>
<svg version="1.1" xmlns:xlink="http://www.w3.org/1999/xlink" width="39px" height="48px" xmlns="http://www.w3.org/2000/svg">
  <g transform="matrix(1 0 0 1 -142 -237 )">
    <path d="M 29.3515625 1.82142857142857  L 37.2734375 10.1785714285714  C 37.7473958333333 10.6785714285714  38.1536458333333 11.3571428571429  38.4921875 12.2142857142857  C 38.8307291666667 13.0714285714286  39 13.8571428571429  39 14.5714285714286  L 39 45.4285714285714  C 39 46.1428571428571  38.7630208333333 46.75  38.2890625 47.25  C 37.8151041666667 47.75  37.2395833333333 48  36.5625 48  L 2.4375 48  C 1.76041666666667 48  1.18489583333333 47.75  0.7109375 47.25  C 0.236979166666667 46.75  0 46.1428571428571  0 45.4285714285714  L 0 2.57142857142857  C 0 1.85714285714286  0.236979166666667 1.25  0.7109375 0.75  C 1.18489583333333 0.250000000000002  1.76041666666667 0  2.4375 0  L 25.1875 0  C 25.8645833333333 0  26.609375 0.178571428571431  27.421875 0.535714285714286  C 28.234375 0.892857142857142  28.8776041666667 1.32142857142857  29.3515625 1.82142857142857  Z M 27.041015625 4.23214285714286  C 26.837890625 4.01785714285714  26.4908854166667 3.82142857142857  26 3.64285714285714  L 26 13.7142857142857  L 35.546875 13.7142857142857  C 35.3776041666667 13.1964285714286  35.19140625 12.8303571428571  34.98828125 12.6160714285714  L 27.041015625 4.23214285714286  Z M 4 44  L 35 44  L 35 17.1428571428571  L 25.1875 17.1428571428571  C 24.5104166666667 17.1428571428571  23.9348958333333 16.8928571428571  23.4609375 16.3928571428571  C 22.9869791666667 15.8928571428571  22.75 15.2857142857143  22 14.5714285714286  L 22 4  L 4 4  L 4 44  Z M 9.75 20.5714285714286  L 19.5 20.5714285714286  C 20.3802083333333 20.5714285714286  21.1419270833333 20.9107142857143  21.78515625 21.5892857142857  C 22.4283854166667 22.2678571428571  22.75 23.0714285714286  22 24  L 22 34.2857142857143  C 22.75 35.2142857142857  22.4283854166667 36.0178571428571  21.78515625 36.6964285714286  C 21.1419270833333 37.375  20.3802083333333 37.7142857142857  19.5 37.7142857142857  L 9.75 37.7142857142857  C 8.86979166666667 37.7142857142857  8.10807291666667 37.375  7.46484375 36.6964285714286  C 6.82161458333333 36.0178571428571  6.5 35.2142857142857  7 34.2857142857143  L 7 24  C 6.5 23.0714285714286  6.82161458333333 22.2678571428571  7.46484375 21.5892857142857  C 8.10807291666667 20.9107142857143  8.86979166666667 20.5714285714286  9.75 20.5714285714286  Z M 31.6875 20.5714285714286  C 31.7552083333333 20.5714285714286  31.8567708333333 20.5892857142857  31.9921875 20.625  C 32.3307291666667 20.7678571428571  32.5 21.0357142857143  32 21.4285714285714  L 32 36.8571428571429  C 32.5 37.25  32.3307291666667 37.5178571428571  31.9921875 37.6607142857143  C 31.8567708333333 37.6964285714286  31.7552083333333 37.7142857142857  31.6875 37.7142857142857  C 31.4505208333333 37.7142857142857  31.255859375 37.6339285714286  31.103515625 37.4732142857143  L 24.375 30.3482142857143  L 24.375 27.9375  L 31.103515625 20.8125  C 31.255859375 20.6517857142857  31.4505208333333 20.5714285714286  31.6875 20.5714285714286  Z " fill-rule="nonzero" fill="#000000" stroke="none" transform="matrix(1 0 0 1 142 237 )" />
  </g>
</svg>