<?xml version="1.0" encoding="utf-8"?>
<svg version="1.1" xmlns:xlink="http://www.w3.org/1999/xlink" width="718px" height="113px" xmlns="http://www.w3.org/2000/svg">
  <defs>
    <mask fill="white" id="clip78">
      <path d="M 0 113  L 0 0  L 718 0  L 718 113  L 365.701333333333 113  L 85.3941333333375 113  L 0 113  Z " fill-rule="evenodd" />
    </mask>
  </defs>
  <g transform="matrix(1 0 0 1 -19 -116 )">
    <path d="M 0 113  L 0 0  L 718 0  L 718 113  L 365.701333333333 113  L 85.3941333333375 113  L 0 113  Z " fill-rule="nonzero" fill="#ffffff" stroke="none" transform="matrix(1 0 0 1 19 116 )" />
    <path d="M 0 113  L 0 0  L 718 0  L 718 113  L 365.701333333333 113  L 85.3941333333375 113  L 0 113  Z " stroke-width="2" stroke="#797979" fill="none" transform="matrix(1 0 0 1 19 116 )" mask="url(#clip78)" />
  </g>
</svg>