<?xml version="1.0" encoding="utf-8"?>
<svg version="1.1" xmlns:xlink="http://www.w3.org/1999/xlink" width="47px" height="21px" xmlns="http://www.w3.org/2000/svg">
  <g transform="matrix(1 0 0 1 -313 -507 )">
    <path d="M 38.7120535714286 11.265625  C 41.9992559523809 9.55208333333334  43.6428571428572 7.92968749999999  43.6428571428572 6.3984375  C 43.6428571428572 5.66015625  43.4548921130953 5.00846354166667  43.0789620535714 4.443359375  C 42.7030319940476 3.87825520833333  42.2221912202381 3.42936197916667  41.6364397321428 3.0966796875  C 41.0506882440476 2.76399739583333  40.3381696428572 2.49283854166666  39.4988839285714 2.283203125  C 38.6595982142857 2.07356770833333  37.8377976190476 1.93229166666667  37.0334821428572 1.859375  C 36.2291666666667 1.78645833333333  35.3723958333333 1.75  34.4631696428572 1.75  C 33.5539434523809 1.75  32.5747767857143 1.8662109375  31.5256696428572 2.0986328125  C 30.4765625 2.3310546875  29.5105096726191 2.62272135416666  28.6275111607143 2.9736328125  C 27.7445126488095 3.32454427083333  26.98828125 3.65266927083333  26.3588169642857 3.9580078125  C 25.7293526785714 4.26334635416666  25.2047991071428 4.54361979166667  24.78515625 4.798828125  C 24.4704241071428 4.99934895833333  24.0420386904762 5.099609375  23.5 5.099609375  C 22.9579613095238 5.099609375  22.5295758928572 4.99934895833333  22.21484375 4.798828125  C 21.7952008928572 4.54361979166667  21.2706473214286 4.26334635416666  20.6411830357143 3.9580078125  C 20.01171875 3.65266927083333  19.2554873511905 3.32454427083333  18.3724888392857 2.9736328125  C 17.4894903273809 2.62272135416666  16.5234375 2.3310546875  15.4743303571428 2.0986328125  C 14.4252232142857 1.8662109375  13.4460565476191 1.75  12.5368303571428 1.75  C 11.6276041666667 1.75  10.7708333333333 1.78645833333333  9.96651785714284 1.859375  C 9.16220238095237 1.93229166666667  8.34040178571426 2.07356770833333  7.50111607142858 2.283203125  C 6.66183035714284 2.49283854166666  5.94931175595237 2.76399739583333  5.36356026785716 3.0966796875  C 4.77780877976189 3.42936197916667  4.29696800595237 3.87825520833333  3.92103794642858 4.443359375  C 3.54510788690474 5.00846354166667  3.35714285714284 5.66015625  3.35714285714284 6.3984375  C 3.35714285714284 7.92968749999999  4.99200148809526 9.54752604166667  8.26171875 11.251953125  L 23.5 18.908203125  L 38.7120535714286 11.265625  Z M 43.6690848214286 1.6953125  C 45.8896949404762 2.82552083333333  47 4.39322916666667  47 6.3984375  C 47 8.41276041666667  44.9979538690476 10.4635416666667  40.9938616071428 12.55078125  L 24.6540178571428 20.75390625  C 24.3392857142857 20.91796875  23.9546130952381 21  23.5 21  C 23.0453869047619 21  22.6607142857143 20.91796875  22.3459821428572 20.75390625  L 5.97991071428574 12.5234375  C 5.80505952380953 12.4505208333333  5.56463913690474 12.33203125  5.25864955357142 12.16796875  C 4.95265997023811 12.00390625  4.46744791666668 11.7054036458333  3.80301339285716 11.2724609375  C 3.13857886904763 10.8395182291667  2.54408482142858 10.3951822916667  2.01953125 9.93945312499999  C 1.49497767857142 9.48372395833333  1.02725074404763 8.93229166666667  0.616350446428579 8.28515625  C 0.205450148809526 7.63802083333333  0 7.00911458333333  0 6.3984375  C 0 4.39322916666667  1.11030505952379 2.82552083333333  3.33091517857142 1.6953125  C 5.55152529761905 0.565104166666665  8.62016369047621 0  12.5368303571428 0  C 13.6209077380953 0  14.7268415178572 0.0979817708333325  15.8546316964286 0.293945312499998  C 16.982421875 0.489908854166663  18.0315290178572 0.754231770833332  19.001953125 1.0869140625  C 19.9723772321428 1.41959635416667  19.9417782738095 1.56770833333334  20.6411830357143 1.859375  C 21.3405877976191 2.15104166666666  22.8705357142857 2.625  23.5 2.953125  C 24.1294642857143 2.625  24.7938988095238 2.31510416666666  25.4933035714286 2.0234375  C 26.1927083333333 1.73177083333334  27.0276227678572 1.41959635416667  27.998046875 1.0869140625  C 28.9684709821428 0.754231770833332  30.017578125 0.489908854166663  31.1453683035714 0.293945312499998  C 32.2731584821428 0.0979817708333325  33.3790922619047 0  34.4631696428572 0  C 38.3798363095238 0  41.4484747023809 0.565104166666665  43.6690848214286 1.6953125  Z " fill-rule="nonzero" fill="#d9001b" stroke="none" transform="matrix(1 0 0 1 313 507 )" />
  </g>
</svg>