<?xml version="1.0" encoding="utf-8"?>
<svg version="1.1" xmlns:xlink="http://www.w3.org/1999/xlink" width="47px" height="22px" xmlns="http://www.w3.org/2000/svg">
  <g transform="matrix(1 0 0 1 -307 -120 )">
    <path d="M 38.7120535714286 11.8020833333333  C 41.9992559523809 10.0069444444445  43.6428571428572 8.30729166666666  43.6428571428572 6.703125  C 43.6428571428572 5.9296875  43.4548921130953 5.24696180555556  43.0789620535714 4.65494791666666  C 42.7030319940476 4.06293402777777  42.2221912202381 3.59266493055556  41.6364397321428 3.244140625  C 41.0506882440476 2.89561631944444  40.3381696428572 2.61154513888889  39.4988839285714 2.39192708333333  C 38.6595982142857 2.17230902777777  37.8377976190476 2.02430555555556  37.0334821428572 1.94791666666667  C 36.2291666666667 1.87152777777777  35.3723958333333 1.83333333333333  34.4631696428572 1.83333333333333  C 33.5539434523809 1.83333333333333  32.5747767857143 1.955078125  31.5256696428572 2.19856770833333  C 30.4765625 2.44205729166667  29.5105096726191 2.74761284722222  28.6275111607143 3.115234375  C 27.7445126488095 3.48285590277777  26.98828125 3.82660590277777  26.3588169642857 4.146484375  C 25.7293526785714 4.46636284722222  25.2047991071428 4.75998263888889  24.78515625 5.02734375  C 24.4704241071428 5.23741319444444  24.0420386904762 5.34244791666666  23.5 5.34244791666666  C 22.9579613095238 5.34244791666666  22.5295758928572 5.23741319444444  22.21484375 5.02734375  C 21.7952008928572 4.75998263888889  21.2706473214286 4.46636284722222  20.6411830357143 4.146484375  C 20.01171875 3.82660590277777  19.2554873511905 3.48285590277777  18.3724888392857 3.115234375  C 17.4894903273809 2.74761284722222  16.5234375 2.44205729166667  15.4743303571428 2.19856770833333  C 14.4252232142857 1.955078125  13.4460565476191 1.83333333333333  12.5368303571428 1.83333333333333  C 11.6276041666667 1.83333333333333  10.7708333333333 1.87152777777777  9.96651785714284 1.94791666666667  C 9.16220238095237 2.02430555555556  8.34040178571426 2.17230902777777  7.50111607142858 2.39192708333333  C 6.66183035714284 2.61154513888889  5.94931175595237 2.89561631944444  5.36356026785716 3.244140625  C 4.77780877976189 3.59266493055556  4.29696800595237 4.06293402777777  3.92103794642858 4.65494791666666  C 3.54510788690474 5.24696180555556  3.35714285714284 5.9296875  3.35714285714284 6.703125  C 3.35714285714284 8.30729166666666  4.99200148809526 10.0021701388889  8.26171875 11.7877604166667  L 23.5 19.80859375  L 38.7120535714286 11.8020833333333  Z M 43.6690848214286 1.77604166666667  C 45.8896949404762 2.96006944444444  47 4.60243055555556  47 6.703125  C 47 8.81336805555556  44.9979538690476 10.9618055555555  40.9938616071428 13.1484375  L 24.6540178571428 21.7421875  C 24.3392857142857 21.9140625  23.9546130952381 22  23.5 22  C 23.0453869047619 22  22.6607142857143 21.9140625  22.3459821428572 21.7421875  L 5.97991071428574 13.1197916666667  C 5.80505952380953 13.0434027777778  5.56463913690474 12.9192708333333  5.25864955357142 12.7473958333333  C 4.95265997023811 12.5755208333333  4.46744791666668 12.2628038194445  3.80301339285716 11.8092447916667  C 3.13857886904763 11.3556857638889  2.54408482142858 10.8901909722222  2.01953125 10.4127604166667  C 1.49497767857142 9.93532986111111  1.02725074404763 9.35763888888889  0.616350446428579 8.6796875  C 0.205450148809526 8.00173611111111  0 7.34288194444444  0 6.703125  C 0 4.60243055555556  1.11030505952379 2.96006944444444  3.33091517857142 1.77604166666667  C 5.55152529761905 0.592013888888887  8.62016369047621 0  12.5368303571428 0  C 13.6209077380953 0  14.7268415178572 0.102647569444444  15.8546316964286 0.307942708333331  C 16.982421875 0.513237847222218  18.0315290178572 0.790147569444444  19.001953125 1.138671875  C 19.9723772321428 1.48719618055556  19.9417782738095 1.64236111111111  20.6411830357143 1.94791666666667  C 21.3405877976191 2.25347222222222  22.8705357142857 2.75  23.5 3.09375  C 24.1294642857143 2.75  24.7938988095238 2.42534722222222  25.4933035714286 2.11979166666667  C 26.1927083333333 1.81423611111111  27.0276227678572 1.48719618055556  27.998046875 1.138671875  C 28.9684709821428 0.790147569444444  30.017578125 0.513237847222218  31.1453683035714 0.307942708333331  C 32.2731584821428 0.102647569444444  33.3790922619047 0  34.4631696428572 0  C 38.3798363095238 0  41.4484747023809 0.592013888888887  43.6690848214286 1.77604166666667  Z " fill-rule="nonzero" fill="#000000" stroke="none" transform="matrix(1 0 0 1 307 120 )" />
  </g>
</svg>