<?xml version="1.0" encoding="utf-8"?>
<svg version="1.1" xmlns:xlink="http://www.w3.org/1999/xlink" width="375px" height="146px" xmlns="http://www.w3.org/2000/svg">
  <defs>
    <mask fill="white" id="clip9">
      <path d="M 0 146  L 0 0  L 375 0  L 375 146  L 191 146  L 44.6000000000022 146  L 0 146  Z " fill-rule="evenodd" />
    </mask>
  </defs>
  <g transform="matrix(1 0 0 1 -1 -58 )">
    <path d="M 0 146  L 0 0  L 375 0  L 375 146  L 191 146  L 44.6000000000022 146  L 0 146  Z " fill-rule="nonzero" fill="#ffffff" stroke="none" transform="matrix(1 0 0 1 1 58 )" />
    <path d="M 0 146  L 0 0  L 375 0  L 375 146  L 191 146  L 44.6000000000022 146  L 0 146  Z " stroke-width="2" stroke="#797979" fill="none" transform="matrix(1 0 0 1 1 58 )" mask="url(#clip9)" />
  </g>
</svg>