<?xml version="1.0" encoding="utf-8"?>
<svg version="1.1" xmlns:xlink="http://www.w3.org/1999/xlink" width="50px" height="40px" xmlns="http://www.w3.org/2000/svg">
  <defs>
    <filter x="192px" y="269px" width="50px" height="40px" filterUnits="userSpaceOnUse" id="filter14">
      <feOffset dx="1" dy="1" in="SourceAlpha" result="shadowOffsetInner" />
      <feGaussianBlur stdDeviation="2.5" in="shadowOffsetInner" result="shadowGaussian" />
      <feComposite in2="shadowGaussian" operator="atop" in="SourceAlpha" result="shadowComposite" />
      <feColorMatrix type="matrix" values="0 0 0 0 0  0 0 0 0 0  0 0 0 0 0  0 0 0 0.698039215686274 0  " in="shadowComposite" />
    </filter>
    <g id="widget15">
      <path d="M 216 302.321620221796  C 208.2 295.082535521105  196.5 290.739084700691  196.5 283.5  C 196.5 279.785714285714  200.4 273.5  216 273.5  C 231.6 273.5  235.5 279.785714285714  235.5 283.5  C 235.5 290.739084700691  223.8 295.082535521105  216 302.321620221796  Z " fill-rule="nonzero" fill="#d9001b" stroke="none" />
      <path d="M 216 303  C 208 295.5  196 291  196 283.5  C 196 279.6  200 273  216 273  C 232 273  236 279.6  236 283.5  C 236 291  224 295.5  216 303  Z M 216 301.643240443593  C 223.6 294.665071042211  235 290.478169401382  235 283.5  C 235 279.971428571429  231.2 274  216 274  C 200.8 274  197 279.971428571429  197 283.5  C 197 290.478169401382  208.4 294.665071042211  216 301.643240443593  Z " fill-rule="nonzero" fill="#ffffff" stroke="none" />
    </g>
  </defs>
  <g transform="matrix(1 0 0 1 -192 -269 )">
    <use xlink:href="#widget15" filter="url(#filter14)" />
    <use xlink:href="#widget15" />
  </g>
</svg>