<?xml version="1.0" encoding="utf-8"?>
<svg version="1.1" xmlns:xlink="http://www.w3.org/1999/xlink" width="50px" height="39px" xmlns="http://www.w3.org/2000/svg">
  <defs>
    <filter x="191px" y="468px" width="50px" height="39px" filterUnits="userSpaceOnUse" id="filter16">
      <feOffset dx="1" dy="1" in="SourceAlpha" result="shadowOffsetInner" />
      <feGaussianBlur stdDeviation="2.5" in="shadowOffsetInner" result="shadowGaussian" />
      <feComposite in2="shadowGaussian" operator="atop" in="SourceAlpha" result="shadowComposite" />
      <feColorMatrix type="matrix" values="0 0 0 0 0  0 0 0 0 0  0 0 0 0 0  0 0 0 0.698039215686274 0  " in="shadowComposite" />
    </filter>
    <g id="widget17">
      <path d="M 215 500.333821296944  C 207.2 493.340043875042  195.5 489.143777421902  195.5 482.15  C 195.5 478.565714285714  199.4 472.5  215 472.5  C 230.6 472.5  234.5 478.565714285714  234.5 482.15  C 234.5 489.143777421902  222.8 493.340043875042  215 500.333821296944  Z " fill-rule="nonzero" fill="#d9001b" stroke="none" />
      <path d="M 215 501  C 207 493.75  195 489.4  195 482.15  C 195 478.38  199 472  215 472  C 231 472  235 478.38  235 482.15  C 235 489.4  223 493.75  215 501  Z M 215 499.667642593888  C 222.6 492.930087750085  234 488.887554843803  234 482.15  C 234 478.751428571429  230.2 473  215 473  C 199.8 473  196 478.751428571429  196 482.15  C 196 488.887554843803  207.4 492.930087750085  215 499.667642593888  Z " fill-rule="nonzero" fill="#ffffff" stroke="none" />
    </g>
  </defs>
  <g transform="matrix(1 0 0 1 -191 -468 )">
    <use xlink:href="#widget17" filter="url(#filter16)" />
    <use xlink:href="#widget17" />
  </g>
</svg>