<?xml version="1.0" encoding="utf-8"?>
<svg version="1.1" xmlns:xlink="http://www.w3.org/1999/xlink" width="50px" height="39px" xmlns="http://www.w3.org/2000/svg">
  <defs>
    <mask fill="white" id="clip10">
      <path d="M 40 10.15  C 40 12.2613018694849  38.9823325182576 14.1266674308821  37.3421429812954 15.8893369013059  C 33.3500852707917 20.1794985514696  25.6702875922925 23.8613018694849  20 29  C 12 21.75  0 17.4  0 10.15  C 0 6.38  4 0  20 0  C 36 0  40 6.38  40 10.15  Z " fill-rule="evenodd" />
    </mask>
    <filter x="192px" y="80px" width="50px" height="39px" filterUnits="userSpaceOnUse" id="filter11">
      <feOffset dx="1" dy="1" in="SourceAlpha" result="shadowOffsetInner" />
      <feGaussianBlur stdDeviation="2.5" in="shadowOffsetInner" result="shadowGaussian" />
      <feComposite in2="shadowGaussian" operator="atop" in="SourceAlpha" result="shadowComposite" />
      <feColorMatrix type="matrix" values="0 0 0 0 0  0 0 0 0 0  0 0 0 0 0  0 0 0 0.698039215686274 0  " in="shadowComposite" />
    </filter>
    <g id="widget12">
      <path d="M 40 10.15  C 40 12.2613018694849  38.9823325182576 14.1266674308821  37.3421429812954 15.8893369013059  C 33.3500852707917 20.1794985514696  25.6702875922925 23.8613018694849  20 29  C 12 21.75  0 17.4  0 10.15  C 0 6.38  4 0  20 0  C 36 0  40 6.38  40 10.15  Z " fill-rule="nonzero" fill="#d9001b" stroke="none" transform="matrix(1 0 0 1 196 84 )" />
      <path d="M 40 10.15  C 40 12.2613018694849  38.9823325182576 14.1266674308821  37.3421429812954 15.8893369013059  C 33.3500852707917 20.1794985514696  25.6702875922925 23.8613018694849  20 29  C 12 21.75  0 17.4  0 10.15  C 0 6.38  4 0  20 0  C 36 0  40 6.38  40 10.15  Z " stroke-width="2" stroke="#ffffff" fill="none" transform="matrix(1 0 0 1 196 84 )" mask="url(#clip10)" />
    </g>
  </defs>
  <g transform="matrix(1 0 0 1 -192 -80 )">
    <use xlink:href="#widget12" filter="url(#filter11)" />
    <use xlink:href="#widget12" />
  </g>
</svg>