<?xml version="1.0" encoding="utf-8"?>
<svg version="1.1" xmlns:xlink="http://www.w3.org/1999/xlink" width="43px" height="50px" xmlns="http://www.w3.org/2000/svg">
  <g transform="matrix(1 0 0 1 -198 -185 )">
    <path d="M 29.6744791666667 1.89732142857143  L 41.0963541666667 13.28125  C 41.3576388888889 13.5416666666667  41.6189236111111 13.8764880952381  41.8802083333333 15  L 28 15  L 28 1.11607142857143  C 29.0772569444444 1.37648809523809  29.4131944444444 1.63690476190476  29.6744791666667 1.89732142857143  Z M 25.8671875 17.0758928571429  C 26.3897569444444 17.5967261904762  27.0243055555556 17.8571428571429  27.7708333333333 18  L 43 18  L 43 47.3214285714286  C 43 48.0654761904762  42.7387152777778 48.6979166666667  42.2161458333333 49.21875  C 41.6935763888889 49.7395833333333  41.0590277777778 50  40.3125 50  L 2.6875 50  C 1.94097222222222 50  1.30642361111111 49.7395833333333  0.783854166666667 49.21875  C 0.261284722222222 48.6979166666667  0 48.0654761904762  0 47.3214285714286  L 0 2.67857142857143  C 0 1.93452380952381  0.261284722222222 1.30208333333333  0.783854166666667 0.78125  C 1.30642361111111 0.260416666666669  1.94097222222222 0  2.6875 0  L 25 0  L 25 15.1785714285714  C 25.0833333333333 15.922619047619  25.3446180555556 16.5550595238095  25.8671875 17.0758928571429  Z M 31.998046875 39.0345982142857  C 32.166015625 38.8671875  32.25 38.6532738095238  32.25 38.3928571428571  L 32.25 36.6071428571429  C 32.25 36.3467261904762  32.166015625 36.1328125  31.998046875 35.9654017857143  C 31.830078125 35.7979910714286  31.6154513888889 35.7142857142857  31.3541666666667 35  L 11.6458333333333 35  C 11.3845486111111 35.7142857142857  11.169921875 35.7979910714286  11.001953125 35.9654017857143  C 10.833984375 36.1328125  10.75 36.3467261904762  10.75 36.6071428571429  L 10.75 38.3928571428571  C 10.75 38.6532738095238  10.833984375 38.8671875  11.001953125 39.0345982142857  C 11.169921875 39.2020089285714  11.3845486111111 39.2857142857143  11.6458333333333 39  L 31.3541666666667 39  C 31.6154513888889 39.2857142857143  31.830078125 39.2020089285714  31.998046875 39.0345982142857  Z M 31.998046875 31.8917410714286  C 32.166015625 31.7243303571429  32.25 31.5104166666667  32.25 31.25  L 32.25 29.4642857142857  C 32.25 29.203869047619  32.166015625 28.9899553571429  31.998046875 28.8225446428571  C 31.830078125 28.6551339285714  31.6154513888889 28.5714285714286  31.3541666666667 28  L 11.6458333333333 28  C 11.3845486111111 28.5714285714286  11.169921875 28.6551339285714  11.001953125 28.8225446428571  C 10.833984375 28.9899553571429  10.75 29.203869047619  10.75 29.4642857142857  L 10.75 31.25  C 10.75 31.5104166666667  10.833984375 31.7243303571429  11.001953125 31.8917410714286  C 11.169921875 32.0591517857143  11.3845486111111 32.1428571428571  11.6458333333333 32  L 31.3541666666667 32  C 31.6154513888889 32.1428571428571  31.830078125 32.0591517857143  31.998046875 31.8917410714286  Z M 31.998046875 24.7488839285714  C 32.166015625 24.5814732142857  32.25 24.3675595238095  32.25 24.1071428571429  L 32.25 22.3214285714286  C 32.25 22.0610119047619  32.166015625 21.8470982142857  31.998046875 21.6796875  C 31.830078125 21.5122767857143  31.6154513888889 21.4285714285714  31.3541666666667 22  L 11.6458333333333 22  C 11.3845486111111 21.4285714285714  11.169921875 21.5122767857143  11.001953125 21.6796875  C 10.833984375 21.8470982142857  10.75 22.0610119047619  10.75 22.3214285714286  L 10.75 24.1071428571429  C 10.75 24.3675595238095  10.833984375 24.5814732142857  11.001953125 24.7488839285714  C 11.169921875 24.9162946428571  11.3845486111111 25  11.6458333333333 25  L 31.3541666666667 25  C 31.6154513888889 25  31.830078125 24.9162946428571  31.998046875 24.7488839285714  Z " fill-rule="nonzero" fill="#000000" stroke="none" transform="matrix(1 0 0 1 198 185 )" />
  </g>
</svg>