<?xml version="1.0" encoding="utf-8"?>
<svg version="1.1" xmlns:xlink="http://www.w3.org/1999/xlink" width="43px" height="52px" xmlns="http://www.w3.org/2000/svg">
  <g transform="matrix(1 0 0 1 -66 -183 )">
    <path d="M 32.3619791666667 1.97321428571429  L 41.0963541666667 11.0267857142857  C 41.6189236111111 11.5684523809524  42.0668402777778 12.3035714285714  42.4401041666667 13.2321428571429  C 42.8133680555556 14.1607142857143  43 15.0119047619048  43 15.7857142857143  L 43 49.2142857142857  C 43 49.9880952380952  42.7387152777778 50.6458333333333  42.2161458333333 51.1875  C 41.6935763888889 51.7291666666667  41.0590277777778 52  40.3125 52  L 2.6875 52  C 1.94097222222222 52  1.30642361111111 51.7291666666667  0.783854166666667 51.1875  C 0.261284722222222 50.6458333333333  0 49.9880952380952  0 49.2142857142857  L 0 2.78571428571429  C 0 2.01190476190476  0.261284722222222 1.35416666666666  0.783854166666667 0.8125  C 1.30642361111111 0.270833333333335  1.94097222222222 0  2.6875 0  L 27.7708333333333 0  C 28.5173611111111 0  29.3385416666667 0.193452380952383  30.234375 0.580357142857144  C 31.1302083333333 0.967261904761904  31.8394097222222 1.43154761904762  32.3619791666667 1.97321428571429  Z M 29.814453125 4.58482142857143  C 29.5904947916667 4.35267857142857  29.2078993055556 4.13988095238095  28 3.94642857142857  L 28 15  L 39.1927083333333 15  C 39.0060763888889 14.2961309523809  38.80078125 13.8995535714286  38.5768229166667 13.6674107142857  L 29.814453125 4.58482142857143  Z M 4 48  L 39 48  L 39 19  L 27.7708333333333 19  C 27.0243055555556 18.5714285714286  26.3897569444444 18.3005952380952  25.8671875 17.7589285714286  C 25.3446180555556 17.2172619047619  25.0833333333333 16.5595238095238  25 15.7857142857143  L 25 4  L 4 4  L 4 48  Z M 10.75 25.0714285714286  L 10.75 23.2142857142857  C 10.75 22.9434523809524  10.833984375 22.7209821428571  11.001953125 22.546875  C 11.169921875 22.3727678571429  11.3845486111111 22.2857142857143  11.6458333333333 23  L 31.3541666666667 23  C 31.6154513888889 22.2857142857143  31.830078125 22.3727678571429  31.998046875 22.546875  C 32.166015625 22.7209821428571  32.25 22.9434523809524  32.25 23.2142857142857  L 32.25 25.0714285714286  C 32.25 25.3422619047619  32.166015625 25.5647321428571  31.998046875 25.7388392857143  C 31.830078125 25.9129464285714  31.6154513888889 26  31.3541666666667 26  L 11.6458333333333 26  C 11.3845486111111 26  11.169921875 25.9129464285714  11.001953125 25.7388392857143  C 10.833984375 25.5647321428571  10.75 25.3422619047619  10.75 25.0714285714286  Z M 11.6458333333333 29  L 31.3541666666667 29  C 31.6154513888889 29.7142857142857  31.830078125 29.8013392857143  31.998046875 29.9754464285714  C 32.166015625 30.1495535714286  32.25 30.3720238095238  32.25 30.6428571428571  L 32.25 32.5  C 32.25 32.7708333333333  32.166015625 32.9933035714286  31.998046875 33.1674107142857  C 31.830078125 33.3415178571429  31.6154513888889 33.4285714285714  31.3541666666667 33  L 11.6458333333333 33  C 11.3845486111111 33.4285714285714  11.169921875 33.3415178571429  11.001953125 33.1674107142857  C 10.833984375 32.9933035714286  10.75 32.7708333333333  10.75 32.5  L 10.75 30.6428571428571  C 10.75 30.3720238095238  10.833984375 30.1495535714286  11.001953125 29.9754464285714  C 11.169921875 29.8013392857143  11.3845486111111 29.7142857142857  11.6458333333333 29  Z M 11.6458333333333 37  L 31.3541666666667 37  C 31.6154513888889 37.1428571428571  31.830078125 37.2299107142857  31.998046875 37.4040178571429  C 32.166015625 37.578125  32.25 37.8005952380952  32.25 38.0714285714286  L 32.25 39.9285714285714  C 32.25 40.1994047619048  32.166015625 40.421875  31.998046875 40.5959821428571  C 31.830078125 40.7700892857143  31.6154513888889 40.8571428571429  31.3541666666667 40  L 11.6458333333333 40  C 11.3845486111111 40.8571428571429  11.169921875 40.7700892857143  11.001953125 40.5959821428571  C 10.833984375 40.421875  10.75 40.1994047619048  10.75 39.9285714285714  L 10.75 38.0714285714286  C 10.75 37.8005952380952  10.833984375 37.578125  11.001953125 37.4040178571429  C 11.169921875 37.2299107142857  11.3845486111111 37.1428571428571  11.6458333333333 37  Z " fill-rule="nonzero" fill="#000000" stroke="none" transform="matrix(1 0 0 1 66 183 )" />
  </g>
</svg>