<?xml version="1.0" encoding="utf-8"?>
<svg version="1.1" xmlns:xlink="http://www.w3.org/1999/xlink" width="45px" height="30px" xmlns="http://www.w3.org/2000/svg">
  <g transform="matrix(1 0 0 1 -307 -403 )">
    <path d="M 38.7120535714286 16.5572916666666  C 41.999255952381 14.1909722222222  43.6428571428572 11.9505208333333  43.6428571428572 9.8359375  C 43.6428571428572 8.81640625  43.4548921130952 7.91644965277777  43.0789620535714 7.13606770833331  C 42.7030319940476 6.35568576388886  42.2221912202381 5.73578559027777  41.6364397321428 5.2763671875  C 41.0506882440476 4.81694878472223  40.3381696428572 4.44249131944446  39.4988839285714 4.15299479166669  C 38.6595982142857 3.86349826388886  37.8377976190476 3.66840277777777  37.0334821428572 3.56770833333331  C 36.2291666666667 3.46701388888886  35.3723958333333 3.41666666666669  34.4631696428572 3.41666666666669  C 33.553943452381 3.41666666666669  32.5747767857143 3.5771484375  31.5256696428572 3.89811197916669  C 30.4765625 4.21907552083331  29.510509672619 4.62185329861109  28.6275111607143 5.1064453125  C 27.7445126488095 5.59103732638886  26.98828125 6.04416232638886  26.3588169642857 6.4658203125  C 25.7293526785714 6.88747829861109  25.2047991071428 7.27452256944446  24.78515625 7.626953125  C 24.4704241071428 7.90386284722223  24.0420386904762 8.04231770833331  23.5 8.04231770833331  C 22.9579613095238 8.04231770833331  22.5295758928572 7.90386284722223  22.21484375 7.626953125  C 21.7952008928572 7.27452256944446  21.2706473214286 6.88747829861109  20.6411830357143 6.4658203125  C 20.01171875 6.04416232638886  19.2554873511905 5.59103732638886  18.3724888392857 5.1064453125  C 17.489490327381 4.62185329861109  16.5234375 4.21907552083331  15.4743303571428 3.89811197916669  C 14.4252232142857 3.5771484375  13.446056547619 3.41666666666669  12.5368303571428 3.41666666666669  C 11.6276041666667 3.41666666666669  10.7708333333333 3.46701388888886  9.96651785714283 3.56770833333331  C 9.16220238095235 3.66840277777777  8.34040178571428 3.86349826388886  7.50111607142856 4.15299479166669  C 6.66183035714283 4.44249131944446  5.94931175595235 4.81694878472223  5.36356026785717 5.2763671875  C 4.77780877976187 5.73578559027777  4.29696800595235 6.35568576388886  3.92103794642856 7.13606770833331  C 3.54510788690476 7.91644965277777  3.35714285714283 8.81640625  3.35714285714283 9.8359375  C 3.35714285714283 11.9505208333333  4.99200148809524 14.1846788194445  8.26171875 16.5384114583334  L 23.5 27.111328125  L 38.7120535714286 16.5572916666666  Z M 43.6690848214286 3.34114583333331  C 45.8896949404762 4.90190972222223  43.6690848214286 9.67230902777777  43.6690848214286 12.44140625  C 43.6690848214286 15.2230902777778  44.9979538690476 15.4496527777778  40.9938616071428 18.33203125  L 24.6540178571428 29.66015625  C 24.3392857142857 29.88671875  23.9546130952381 30  23.5 30  C 23.0453869047619 30  22.6607142857143 29.88671875  22.3459821428572 29.66015625  L 5.97991071428572 18.2942708333334  C 5.80505952380952 18.1935763888889  5.56463913690476 18.0299479166666  5.25864955357144 17.8033854166666  C 4.95265997023813 17.5768229166666  4.46744791666669 17.1646050347222  3.80301339285717 16.5667317708334  C 3.13857886904765 15.9688585069445  2.54408482142856 15.3552517361111  2.01953125 14.7259114583333  C 1.49497767857144 14.0965711805555  1.02725074404765 13.3350694444445  0.616350446428555 12.44140625  C 0.205450148809518 11.5477430555555  0 10.6792534722222  0 9.8359375  C 0 7.06684027777777  1.1103050595238 4.90190972222223  3.33091517857144 3.34114583333331  C 5.55152529761904 1.78038194444446  8.6201636904762 1  12.5368303571428 1  C 13.6209077380952 1  14.7268415178572 1.13530815972223  15.8546316964286 1.40592447916669  C 16.982421875 1.67654079861109  18.0315290178572 2.04155815972223  19.001953125 2.5009765625  C 19.9723772321428 2.96039496527777  11.8374255952381 0.597222222222229  12.5368303571428 1  C 13.2362351190476 1.40277777777777  22.8705357142857 4.625  23.5 5.078125  C 24.1294642857143 4.625  24.7938988095238 4.19704861111109  25.4933035714286 3.79427083333331  C 26.1927083333333 3.39149305555554  27.0276227678572 2.96039496527777  27.998046875 2.5009765625  C 28.9684709821428 2.04155815972223  30.017578125 1.67654079861109  31.1453683035714 1.40592447916669  C 32.2731584821428 1.13530815972223  33.3790922619048 1  34.4631696428572 1  C 38.3798363095238 1  41.448474702381 1.78038194444446  43.6690848214286 3.34114583333331  Z " fill-rule="nonzero" fill="#ffffff" stroke="none" transform="matrix(1 0 0 1 307 403 )" />
  </g>
</svg>