<?xml version="1.0" encoding="utf-8"?>
<svg version="1.1" xmlns:xlink="http://www.w3.org/1999/xlink" width="375px" height="113px" xmlns="http://www.w3.org/2000/svg">
  <defs>
    <mask fill="white" id="clip6">
      <path d="M 0 113  L 0 0  L 375 0  L 375 113  L 191 113  L 44.6000000000022 113  L 0 113  Z " fill-rule="evenodd" />
    </mask>
  </defs>
  <g transform="matrix(1 0 0 1 0 -362 )">
    <path d="M 0 113  L 0 0  L 375 0  L 375 113  L 191 113  L 44.6000000000022 113  L 0 113  Z " fill-rule="nonzero" fill="#ffffff" stroke="none" transform="matrix(1 0 0 1 0 362 )" />
    <path d="M 0 113  L 0 0  L 375 0  L 375 113  L 191 113  L 44.6000000000022 113  L 0 113  Z " stroke-width="2" stroke="#797979" fill="none" transform="matrix(1 0 0 1 0 362 )" mask="url(#clip6)" />
  </g>
</svg>