<?xml version="1.0" encoding="utf-8"?>
<svg version="1.1" xmlns:xlink="http://www.w3.org/1999/xlink" width="64px" height="50px" xmlns="http://www.w3.org/2000/svg">
  <defs>
    <filter x="25px" y="180px" width="64px" height="50px" filterUnits="userSpaceOnUse" id="filter61">
      <feOffset dx="1" dy="1" in="SourceAlpha" result="shadowOffsetInner" />
      <feGaussianBlur stdDeviation="2.5" in="shadowOffsetInner" result="shadowGaussian" />
      <feComposite in2="shadowGaussian" operator="atop" in="SourceAlpha" result="shadowComposite" />
      <feColorMatrix type="matrix" values="0 0 0 0 0  0 0 0 0 0  0 0 0 0 0  0 0 0 0.698039215686274 0  " in="shadowComposite" />
    </filter>
    <g id="widget62">
      <path d="M 56 184  C 71.12 184  83 192.8  83 204  C 83 215.2  71.12 224  56 224  C 40.88 224  29 215.2  29 204  C 29 192.8  40.88 184  56 184  Z " fill-rule="nonzero" fill="#009dd9" stroke="none" />
      <path d="M 56 184.5  C 70.84 184.5  82.5 193.08  82.5 204  C 82.5 214.92  70.84 223.5  56 223.5  C 41.16 223.5  29.5 214.92  29.5 204  C 29.5 193.08  41.16 184.5  56 184.5  Z " stroke-width="1" stroke="#ffffff" fill="none" />
    </g>
  </defs>
  <g transform="matrix(1 0 0 1 -25 -180 )">
    <use xlink:href="#widget62" filter="url(#filter61)" />
    <use xlink:href="#widget62" />
  </g>
</svg>