<?xml version="1.0" encoding="utf-8"?>
<svg version="1.1" xmlns:xlink="http://www.w3.org/1999/xlink" width="140px" height="27px" xmlns="http://www.w3.org/2000/svg">
  <defs>
    <mask fill="white" id="clip33">
      <path d="M 0 22  L 0 5  C 0 2.19999999999999  2.19999999999999 0  5 0  L 66 0  L 70 0  L 91.5999999999985 0  L 135 0  C 137.8 0  140 2.19999999999999  140 5  L 140 22  C 140 24.8  137.8 27  135 27  L 5 27  C 2.19999999999999 27  0 24.8  0 22  Z " fill-rule="evenodd" />
    </mask>
  </defs>
  <g transform="matrix(1 0 0 1 -221 -383 )">
    <path d="M 0 22  L 0 5  C 0 2.19999999999999  2.19999999999999 0  5 0  L 66 0  L 70 0  L 91.5999999999985 0  L 135 0  C 137.8 0  140 2.19999999999999  140 5  L 140 22  C 140 24.8  137.8 27  135 27  L 5 27  C 2.19999999999999 27  0 24.8  0 22  Z " fill-rule="nonzero" fill="#ffffff" stroke="none" transform="matrix(1 0 0 1 221 383 )" />
    <path d="M 0 22  L 0 5  C 0 2.19999999999999  2.19999999999999 0  5 0  L 66 0  L 70 0  L 91.5999999999985 0  L 135 0  C 137.8 0  140 2.19999999999999  140 5  L 140 22  C 140 24.8  137.8 27  135 27  L 5 27  C 2.19999999999999 27  0 24.8  0 22  Z " stroke-width="2" stroke="#797979" fill="none" transform="matrix(1 0 0 1 221 383 )" mask="url(#clip33)" />
  </g>
</svg>