<?xml version="1.0" encoding="utf-8"?>
<svg version="1.1" xmlns:xlink="http://www.w3.org/1999/xlink" width="40px" height="50px" xmlns="http://www.w3.org/2000/svg">
  <defs>
    <filter x="135px" y="-17px" width="40px" height="50px" filterUnits="userSpaceOnUse" id="filter79">
      <feOffset dx="1" dy="1" in="SourceAlpha" result="shadowOffsetInner" />
      <feGaussianBlur stdDeviation="2.5" in="shadowOffsetInner" result="shadowGaussian" />
      <feComposite in2="shadowGaussian" operator="atop" in="SourceAlpha" result="shadowComposite" />
      <feColorMatrix type="matrix" values="0 0 0 0 0  0 0 0 0 0  0 0 0 0 0  0 0 0 0.698039215686274 0  " in="shadowComposite" />
    </filter>
    <g id="widget80">
      <path d="M 154 26.0369284683536  C 148.2 16.4073405959099  139.5 10.6295878724437  139.5 1  C 139.5 -4.01428571428571  142.4 -12.5  154 -12.5  C 165.6 -12.5  168.5 -4.01428571428571  168.5 1  C 168.5 10.6295878724437  159.8 16.4073405959099  154 26.0369284683536  Z " fill-rule="nonzero" fill="#d9001b" stroke="none" />
      <path d="M 154 27  C 148 17  139 11  139 1  C 139 -4.2  142 -13  154 -13  C 166 -13  169 -4.2  169 1  C 169 11  160 17  154 27  Z M 154 25.0738569367072  C 159.6 15.8146811918198  168 10.2591757448874  168 1  C 168 -3.82857142857143  165.2 -12  154 -12  C 142.8 -12  140 -3.82857142857143  140 1  C 140 10.2591757448874  148.4 15.8146811918198  154 25.0738569367072  Z " fill-rule="nonzero" fill="#ffffff" stroke="none" />
    </g>
  </defs>
  <g transform="matrix(1 0 0 1 -135 17 )">
    <use xlink:href="#widget80" filter="url(#filter79)" />
    <use xlink:href="#widget80" />
  </g>
</svg>