<?xml version="1.0" encoding="utf-8"?>
<svg version="1.1" xmlns:xlink="http://www.w3.org/1999/xlink" width="25px" height="24px" xmlns="http://www.w3.org/2000/svg">
  <g transform="matrix(1 0 0 1 -11 -411 )">
    <path d="M 11 411  L 36 411  L 36 435  L 11 435  L 11 411  " fill-rule="nonzero" fill="#cccccc" stroke="none" />
    <path d="M 13 413  L 34 413  L 34 433  L 13 433  L 13 413  " fill-rule="nonzero" fill="#ffffff" stroke="none" />
    <path d="M 25.8 418.2  C 24.792 418.2  24 417.408  24 416.4  C 24 415.392  24.792 414.6  25.8 414.6  C 26.808 414.6  27.6 415.392  27.6 416.4  C 27.6 417.408  26.808 418.2  25.8 418.2  " fill-rule="nonzero" fill="#cccccc" stroke="none" />
    <path d="M 14 433  L 14 422.55  L 19 417.8  L 26 422.056  L 30 420.65  L 34 422.056  L 34 433  L 14 433  " fill-rule="nonzero" fill="#169bd5" stroke="none" />
  </g>
</svg>