<?xml version="1.0" encoding="utf-8"?>
<svg version="1.1" xmlns:xlink="http://www.w3.org/1999/xlink" width="29px" height="30px" xmlns="http://www.w3.org/2000/svg">
  <g transform="matrix(1 0 0 1 -126 -408 )">
    <path d="M 21.8255208333333 1.13839285714286  L 27.7161458333333 6.36160714285714  C 28.0685763888889 6.67410714285714  28.3706597222222 7.09821428571429  28.6223958333333 7.63392857142857  C 28.8741319444444 8.16964285714286  29 8.66071428571428  29 9.10714285714286  L 29 28.3928571428571  C 29 28.8392857142857  28.8237847222222 29.21875  28.4713541666667 29.53125  C 28.1189236111111 29.84375  27.6909722222222 30  27.1875 30  L 1.8125 30  C 1.30902777777778 30  0.881076388888889 29.84375  0.528645833333333 29.53125  C 0.176215277777778 29.21875  0 28.8392857142857  0 28.3928571428571  L 0 1.60714285714286  C 0 1.16071428571428  0.176215277777778 0.781249999999999  0.528645833333333 0.46875  C 0.881076388888889 0.156250000000001  1.30902777777778 0  1.8125 0  L 18.7291666666667 0  C 19.2326388888889 0  19.7864583333333 0.111607142857144  20.390625 0.334821428571429  C 20.9947916666667 0.558035714285714  21.4730902777778 0.825892857142856  21.8255208333333 1.13839285714286  Z M 20.107421875 2.64508928571429  C 19.9563802083333 2.51116071428571  19.6983506944444 2.38839285714285  19.3333333333333 2.27678571428571  L 19.3333333333333 8.57142857142857  L 26.4322916666667 8.57142857142857  C 26.3064236111111 8.24776785714285  26.16796875 8.01897321428571  26.0169270833333 7.88504464285714  L 20.107421875 2.64508928571429  Z M 2.41666666666667 27.8571428571429  L 26.5833333333333 27.8571428571429  L 26.5833333333333 10.7142857142857  L 18.7291666666667 10.7142857142857  C 18.2256944444444 10.7142857142857  17.7977430555556 10.5580357142857  17.4453125 10.2455357142857  C 17.0928819444444 9.93303571428571  16.9166666666667 9.55357142857143  16.9166666666667 9.10714285714286  L 16.9166666666667 2.14285714285714  L 2.41666666666667 2.14285714285714  L 2.41666666666667 27.8571428571429  Z M 7.25 12.8571428571429  L 14.5 12.8571428571429  C 15.1545138888889 12.8571428571429  15.7209201388889 13.0691964285714  16.19921875 13.4933035714286  C 16.6775173611111 13.9174107142857  16.9166666666667 14.4196428571429  16.9166666666667 15  L 16.9166666666667 21.4285714285714  C 16.9166666666667 22.0089285714286  16.6775173611111 22.5111607142857  16.19921875 22.9352678571429  C 15.7209201388889 23.359375  15.1545138888889 23.5714285714286  14.5 23.5714285714286  L 7.25 23.5714285714286  C 6.59548611111111 23.5714285714286  6.02907986111111 23.359375  5.55078125 22.9352678571429  C 5.07248263888889 22.5111607142857  4.83333333333333 22.0089285714286  4.83333333333333 21.4285714285714  L 4.83333333333333 15  C 4.83333333333333 14.4196428571429  5.07248263888889 13.9174107142857  5.55078125 13.4933035714286  C 6.02907986111111 13.0691964285714  6.59548611111111 12.8571428571429  7.25 12.8571428571429  Z M 23.5625 12.8571428571429  C 23.6128472222222 12.8571428571429  23.6883680555556 12.8683035714286  23.7890625 12.890625  C 24.0407986111111 12.9799107142857  24.1666666666667 13.1473214285714  24.1666666666667 13.3928571428571  L 24.1666666666667 23.0357142857143  C 24.1666666666667 23.28125  24.0407986111111 23.4486607142857  23.7890625 23.5379464285714  C 23.6883680555556 23.5602678571429  23.6128472222222 23.5714285714286  23.5625 23.5714285714286  C 23.3862847222222 23.5714285714286  23.2415364583333 23.5212053571429  23.1282552083333 23.4207589285714  L 18.125 18.9676339285714  L 18.125 17.4609375  L 23.1282552083333 13.0078125  C 23.2415364583333 12.9073660714286  23.3862847222222 12.8571428571429  23.5625 12.8571428571429  Z " fill-rule="nonzero" fill="#000000" stroke="none" transform="matrix(1 0 0 1 126 408 )" />
  </g>
</svg>