<?xml version="1.0" encoding="utf-8"?>
<svg version="1.1" xmlns:xlink="http://www.w3.org/1999/xlink" width="28px" height="25px" xmlns="http://www.w3.org/2000/svg">
  <defs>
    <filter x="205px" y="618px" width="28px" height="25px" filterUnits="userSpaceOnUse" id="filter7">
      <feOffset dx="1" dy="1" in="SourceAlpha" result="shadowOffsetInner" />
      <feGaussianBlur stdDeviation="2.5" in="shadowOffsetInner" result="shadowGaussian" />
      <feComposite in2="shadowGaussian" operator="atop" in="SourceAlpha" result="shadowComposite" />
      <feColorMatrix type="matrix" values="0 0 0 0 0  0 0 0 0 0  0 0 0 0 0  0 0 0 0.698039215686274 0  " in="shadowComposite" />
    </filter>
    <g id="widget8">
      <path d="M 218 622  C 223.04 622  227 625.3  227 629.5  C 227 633.7  223.04 637  218 637  C 212.96 637  209 633.7  209 629.5  C 209 625.3  212.96 622  218 622  Z " fill-rule="nonzero" fill="#d9001b" stroke="none" />
      <path d="M 218 622.5  C 222.76 622.5  226.5 625.58  226.5 629.5  C 226.5 633.42  222.76 636.5  218 636.5  C 213.24 636.5  209.5 633.42  209.5 629.5  C 209.5 625.58  213.24 622.5  218 622.5  Z " stroke-width="1" stroke="#ffffff" fill="none" />
    </g>
  </defs>
  <g transform="matrix(1 0 0 1 -205 -618 )">
    <use xlink:href="#widget8" filter="url(#filter7)" />
    <use xlink:href="#widget8" />
  </g>
</svg>