<?xml version="1.0" encoding="utf-8"?>
<svg version="1.1" xmlns:xlink="http://www.w3.org/1999/xlink" width="89px" height="91px" xmlns="http://www.w3.org/2000/svg">
  <defs>
    <filter x="132px" y="94px" width="89px" height="91px" filterUnits="userSpaceOnUse" id="filter1">
      <feOffset dx="1" dy="1" in="SourceAlpha" result="shadowOffsetInner" />
      <feGaussianBlur stdDeviation="2.5" in="shadowOffsetInner" result="shadowGaussian" />
      <feComposite in2="shadowGaussian" operator="atop" in="SourceAlpha" result="shadowComposite" />
      <feColorMatrix type="matrix" values="0 0 0 0 0  0 0 0 0 0  0 0 0 0 0  0 0 0 0.698039215686274 0  " in="shadowComposite" />
    </filter>
    <g id="widget2">
      <path d="M 175.5 98  C 197.62 98  215 115.82  215 138.5  C 215 161.18  197.62 179  175.5 179  C 153.38 179  136 161.18  136 138.5  C 136 115.82  153.38 98  175.5 98  Z " fill-rule="nonzero" fill="#009dd9" stroke="none" />
      <path d="M 175.5 98.5  C 197.34 98.5  214.5 116.1  214.5 138.5  C 214.5 160.9  197.34 178.5  175.5 178.5  C 153.66 178.5  136.5 160.9  136.5 138.5  C 136.5 116.1  153.66 98.5  175.5 98.5  Z " stroke-width="1" stroke="#ffffff" fill="none" />
    </g>
  </defs>
  <g transform="matrix(1 0 0 1 -132 -94 )">
    <use xlink:href="#widget2" filter="url(#filter1)" />
    <use xlink:href="#widget2" />
  </g>
</svg>