<?xml version="1.0" encoding="utf-8"?>
<svg version="1.1" xmlns:xlink="http://www.w3.org/1999/xlink" width="68px" height="70px" xmlns="http://www.w3.org/2000/svg">
  <defs>
    <filter x="47px" y="323px" width="68px" height="70px" filterUnits="userSpaceOnUse" id="filter4">
      <feOffset dx="1" dy="1" in="SourceAlpha" result="shadowOffsetInner" />
      <feGaussianBlur stdDeviation="2.5" in="shadowOffsetInner" result="shadowGaussian" />
      <feComposite in2="shadowGaussian" operator="atop" in="SourceAlpha" result="shadowComposite" />
      <feColorMatrix type="matrix" values="0 0 0 0 0  0 0 0 0 0  0 0 0 0 0  0 0 0 0.698039215686274 0  " in="shadowComposite" />
    </filter>
    <g id="widget5">
      <path d="M 80 327  C 96.24 327  109 340.2  109 357  C 109 373.8  96.24 387  80 387  C 63.76 387  51 373.8  51 357  C 51 340.2  63.76 327  80 327  Z " fill-rule="nonzero" fill="#009dd9" stroke="none" />
      <path d="M 80 327.5  C 95.96 327.5  108.5 340.48  108.5 357  C 108.5 373.52  95.96 386.5  80 386.5  C 64.04 386.5  51.5 373.52  51.5 357  C 51.5 340.48  64.04 327.5  80 327.5  Z " stroke-width="1" stroke="#ffffff" fill="none" />
    </g>
  </defs>
  <g transform="matrix(1 0 0 1 -47 -323 )">
    <use xlink:href="#widget5" filter="url(#filter4)" />
    <use xlink:href="#widget5" />
  </g>
</svg>