<?xml version="1.0" encoding="utf-8"?>
<svg version="1.1" xmlns:xlink="http://www.w3.org/1999/xlink" width="24px" height="24px" xmlns="http://www.w3.org/2000/svg">
  <g transform="matrix(1 0 0 1 -235 -76 )">
    <path d="M 11.1928251121076 18  L 11.9461883408072 18  L 13.5067264573991 16.0227272727273  L 11.4618834080717 13.4318181818182  L 9.90134529147982 15.4090909090909  L 9.90134529147982 16.3636363636364  L 11.1928251121076 16.3636363636364  L 11.1928251121076 18  Z M 17.8520179372197 6.28977272727273  C 18.0044843049327 6.09659090909091  18.0089686098655 5.90909090909091  17.8654708520179 5.72727272727273  C 17.7219730941704 5.54545454545454  17.5739910313901 5.55113636363636  17.4215246636771 5.74431818181818  L 12.7130044843049 11.7102272727273  C 12.5605381165919 11.9034090909091  12.5560538116592 12.0909090909091  12.6995515695067 12.2727272727273  C 12.8430493273543 12.4545454545455  12.9910313901345 12.4488636363636  13.1434977578475 12.2556818181818  L 17.8520179372197 6.28977272727273  Z M 18.6726457399103 15.3579545454545  C 18.8520179372197 15.4488636363636  18.9417040358744 15.6136363636364  18.9417040358744 15.8522727272727  L 18.9417040358744 19.0909090909091  C 18.9417040358744 20.4431818181818  18.5627802690583 21.5994318181818  17.804932735426 22.5596590909091  C 17.0470852017937 23.5198863636364  16.1345291479821 24  15.067264573991 24  L 3.87443946188341 24  C 2.80717488789238 24  1.89461883408072 23.5198863636364  1.13677130044843 22.5596590909091  C 0.378923766816143 21.5994318181818  0 20.4431818181818  0 19.0909090909091  L 0 4.90909090909091  C 0 3.55681818181818  0.378923766816143 2.40056818181818  1.13677130044843 1.44034090909091  C 1.89461883408072 0.480113636363634  2.80717488789238 0  3.87443946188341 0  L 15.067264573991 0  C 15.6322869955157 0  16.1569506726457 0.142045454545453  16.6412556053812 0.426136363636362  C 16.7757847533632 0.505681818181817  16.8565022421525 0.636363636363636  16.8834080717489 0.818181818181817  C 16.9103139013453 1.01136363636364  16.8699551569507 1.17613636363636  16.762331838565 1.3125  L 16.1031390134529 2.14772727272727  C 15.9775784753363 2.30681818181818  15.8340807174888 2.35227272727273  15.6726457399103 2.28409090909091  C 15.4663677130045 2.21590909090909  15.2645739910314 2.18181818181818  15.067264573991 2.18181818181818  L 3.87443946188341 2.18181818181818  C 3.28251121076233 2.18181818181818  2.77578475336323 2.44886363636363  2.3542600896861 2.98295454545455  C 1.93273542600897 3.51704545454545  1.7219730941704 4.15909090909091  2 4.90909090909091  L 2 19.0909090909091  C 1.7219730941704 19.8409090909091  1.93273542600897 20.4829545454545  2.3542600896861 21.0170454545455  C 2.77578475336323 21.5511363636364  3.28251121076233 21.8181818181818  3.87443946188341 21.8181818181818  L 15.067264573991 21.8181818181818  C 15.6591928251121 21.8181818181818  16.1659192825112 21.5511363636364  16.5874439461883 21.0170454545455  C 17.0089686098655 20.4829545454545  17.219730941704 19.8409090909091  17.219730941704 19.0909090909091  L 17.219730941704 16.9431818181818  C 17.219730941704 16.7954545454545  17.2600896860987 16.6704545454545  17.3408071748879 16.5681818181818  L 18.2017937219731 15.4772727272727  C 18.3363228699552 15.3068181818182  18.4932735426009 15.2670454545455  18.6726457399103 15.3579545454545  Z M 8.60986547085202 14.7272727272727  L 17.6502242152466 3.27272727272727  L 21.52466367713 8.18181818181818  L 12.4843049327354 19.6363636363636  L 8.60986547085202 19.6363636363636  L 8.60986547085202 14.7272727272727  Z M 24 4.36363636363636  C 24 4.81818181818182  23.8744394618834 5.20454545454545  23.6233183856502 5.52272727272727  L 22.3856502242152 7.09090909090909  L 18.5112107623318 2.18181818181818  L 19.7488789237668 0.613636363636362  C 20 0.295454545454543  20.304932735426 0.136363636363638  20.6636771300448 0.136363636363638  C 21.0224215246637 0.136363636363638  21.3273542600897 0.295454545454543  21.5784753363229 0.613636363636362  L 23.6233183856502 3.20454545454546  C 23.8744394618834 3.52272727272727  24 3.90909090909091  24 4.36363636363636  Z " fill-rule="nonzero" fill="#000000" stroke="none" transform="matrix(1 0 0 1 235 76 )" />
  </g>
</svg>