<?xml version="1.0" encoding="utf-8"?>
<svg version="1.1" xmlns:xlink="http://www.w3.org/1999/xlink" width="22px" height="29px" xmlns="http://www.w3.org/2000/svg">
  <defs>
    <mask fill="white" id="clip21">
      <path d="M 12 6.65  C 12 11.4  8.4 14.25  6 19  C 4.9571064360093 16.9359398212684  3.68762391664084 15.2306454885516  2.58539938061936 13.5723215086925  C 1.15093493270894 11.4140888435993  0 9.33576336237564  0 6.65  C 0 4.18  1.2 0  6 0  C 10.8 0  12 4.18  12 6.65  Z " fill-rule="evenodd" />
    </mask>
    <filter x="99px" y="-7px" width="22px" height="29px" filterUnits="userSpaceOnUse" id="filter22">
      <feOffset dx="1" dy="1" in="SourceAlpha" result="shadowOffsetInner" />
      <feGaussianBlur stdDeviation="2.5" in="shadowOffsetInner" result="shadowGaussian" />
      <feComposite in2="shadowGaussian" operator="atop" in="SourceAlpha" result="shadowComposite" />
      <feColorMatrix type="matrix" values="0 0 0 0 0  0 0 0 0 0  0 0 0 0 0  0 0 0 0.698039215686274 0  " in="shadowComposite" />
    </filter>
    <g id="widget23">
      <path d="M 12 6.65  C 12 11.4  8.4 14.25  6 19  C 4.9571064360093 16.9359398212684  3.68762391664084 15.2306454885516  2.58539938061936 13.5723215086925  C 1.15093493270894 11.4140888435993  0 9.33576336237564  0 6.65  C 0 4.18  1.2 0  6 0  C 10.8 0  12 4.18  12 6.65  Z " fill-rule="nonzero" fill="#a30014" stroke="none" transform="matrix(1 0 0 1 103 -3 )" />
      <path d="M 12 6.65  C 12 11.4  8.4 14.25  6 19  C 4.9571064360093 16.9359398212684  3.68762391664084 15.2306454885516  2.58539938061936 13.5723215086925  C 1.15093493270894 11.4140888435993  0 9.33576336237564  0 6.65  C 0 4.18  1.2 0  6 0  C 10.8 0  12 4.18  12 6.65  Z " stroke-width="2" stroke="#ffffff" fill="none" transform="matrix(1 0 0 1 103 -3 )" mask="url(#clip21)" />
    </g>
  </defs>
  <g transform="matrix(1 0 0 1 -99 7 )">
    <use xlink:href="#widget23" filter="url(#filter22)" />
    <use xlink:href="#widget23" />
  </g>
</svg>