<?xml version="1.0" encoding="utf-8"?>
<svg version="1.1" xmlns:xlink="http://www.w3.org/1999/xlink" width="87px" height="75px" xmlns="http://www.w3.org/2000/svg">
  <g transform="matrix(1 0 0 1 -145 -534 )">
    <path d="M 188.5 534  C 212.86 534  232 550.5  232 571.5  C 232 592.5  212.86 609  188.5 609  C 164.14 609  145 592.5  145 571.5  C 145 550.5  164.14 534  188.5 534  Z " fill-rule="nonzero" fill="#facd91" stroke="none" />
    <path d="M 188.5 534.5  C 212.58 534.5  231.5 550.78  231.5 571.5  C 231.5 592.22  212.58 608.5  188.5 608.5  C 164.42 608.5  145.5 592.22  145.5 571.5  C 145.5 550.78  164.42 534.5  188.5 534.5  Z " stroke-width="1" stroke="#797979" fill="none" />
  </g>
</svg>