<?xml version="1.0" encoding="utf-8"?>
<svg version="1.1" xmlns:xlink="http://www.w3.org/1999/xlink" width="47px" height="29px" xmlns="http://www.w3.org/2000/svg">
  <g transform="matrix(1 0 0 1 -307 -106 )">
    <path d="M 38.7120535714286 15.5572916666667  C 41.9992559523809 13.1909722222222  43.6428571428572 10.9505208333333  43.6428571428572 8.8359375  C 43.6428571428572 7.81640625  43.4548921130953 6.91644965277778  43.0789620535714 6.13606770833333  C 42.7030319940476 5.35568576388888  42.2221912202381 4.73578559027778  41.6364397321428 4.2763671875  C 41.0506882440476 3.81694878472222  40.3381696428572 3.44249131944444  39.4988839285714 3.15299479166666  C 38.6595982142857 2.86349826388888  37.8377976190476 2.66840277777778  37.0334821428572 2.56770833333334  C 36.2291666666667 2.46701388888888  35.3723958333333 2.41666666666666  34.4631696428572 2.41666666666666  C 33.5539434523809 2.41666666666666  32.5747767857143 2.5771484375  31.5256696428572 2.89811197916666  C 30.4765625 3.21907552083334  29.5105096726191 3.62185329861111  28.6275111607143 4.1064453125  C 27.7445126488095 4.59103732638888  26.98828125 5.04416232638888  26.3588169642857 5.4658203125  C 25.7293526785714 5.88747829861111  25.2047991071428 6.27452256944444  24.78515625 6.626953125  C 24.4704241071428 6.90386284722222  24.0420386904762 7.04231770833333  23.5 7.04231770833333  C 22.9579613095238 7.04231770833333  22.5295758928572 6.90386284722222  22.21484375 6.626953125  C 21.7952008928572 6.27452256944444  21.2706473214286 5.88747829861111  20.6411830357143 5.4658203125  C 20.01171875 5.04416232638888  19.2554873511905 4.59103732638888  18.3724888392857 4.1064453125  C 17.4894903273809 3.62185329861111  16.5234375 3.21907552083334  15.4743303571428 2.89811197916666  C 14.4252232142857 2.5771484375  13.4460565476191 2.41666666666666  12.5368303571428 2.41666666666666  C 11.6276041666667 2.41666666666666  10.7708333333333 2.46701388888888  9.96651785714284 2.56770833333334  C 9.16220238095237 2.66840277777778  8.34040178571426 2.86349826388888  7.50111607142858 3.15299479166666  C 6.66183035714284 3.44249131944444  5.94931175595237 3.81694878472222  5.36356026785716 4.2763671875  C 4.77780877976189 4.73578559027778  4.29696800595237 5.35568576388888  3.92103794642858 6.13606770833333  C 3.54510788690474 6.91644965277778  3.35714285714284 7.81640625  3.35714285714284 8.8359375  C 3.35714285714284 10.9505208333333  4.99200148809526 13.1846788194444  8.26171875 15.5384114583333  L 23.5 26.111328125  L 38.7120535714286 15.5572916666667  Z M 43.6690848214286 2.34114583333334  C 45.8896949404762 3.90190972222222  47 6.06684027777778  47 8.8359375  C 47 11.6176215277778  44.9979538690476 14.4496527777778  40.9938616071428 17.33203125  L 24.6540178571428 28.66015625  C 24.3392857142857 28.88671875  23.9546130952381 29  23.5 29  C 23.0453869047619 29  22.6607142857143 28.88671875  22.3459821428572 28.66015625  L 5.97991071428574 17.2942708333334  C 5.80505952380953 17.1935763888889  5.56463913690474 17.0299479166667  5.25864955357142 16.8033854166667  C 4.95265997023811 16.5768229166667  4.46744791666668 16.1646050347222  3.80301339285716 15.5667317708333  C 3.13857886904763 14.9688585069444  2.54408482142858 14.3552517361111  2.01953125 13.7259114583333  C 1.49497767857142 13.0965711805556  1.02725074404763 12.3350694444444  0.616350446428579 11.44140625  C 0.205450148809526 10.5477430555556  0 9.67925347222222  0 8.8359375  C 0 6.06684027777778  1.11030505952379 3.90190972222222  3.33091517857142 2.34114583333334  C 5.55152529761905 0.780381944444442  8.62016369047621 0  12.5368303571428 0  C 13.6209077380953 0  14.7268415178572 0.135308159722221  15.8546316964286 0.405924479166663  C 16.982421875 0.676540798611105  18.0315290178572 1.04155815972222  19.001953125 1.5009765625  C 19.9723772321428 1.96039496527778  19.9417782738095 2.16493055555556  20.6411830357143 2.56770833333334  C 21.3405877976191 2.97048611111111  22.8705357142857 3.625  23.5 4.078125  C 24.1294642857143 3.625  24.7938988095238 3.19704861111111  25.4933035714286 2.79427083333334  C 26.1927083333333 2.39149305555556  27.0276227678572 1.96039496527778  27.998046875 1.5009765625  C 28.9684709821428 1.04155815972222  30.017578125 0.676540798611105  31.1453683035714 0.405924479166663  C 32.2731584821428 0.135308159722221  33.3790922619047 0  34.4631696428572 0  C 38.3798363095238 0  41.4484747023809 0.780381944444442  43.6690848214286 2.34114583333334  Z " fill-rule="nonzero" fill="#000000" stroke="none" transform="matrix(1 0 0 1 307 106 )" />
  </g>
</svg>