<?xml version="1.0" encoding="utf-8"?>
<svg version="1.1" xmlns:xlink="http://www.w3.org/1999/xlink" width="28px" height="25px" xmlns="http://www.w3.org/2000/svg">
  <defs>
    <filter x="163px" y="617px" width="28px" height="25px" filterUnits="userSpaceOnUse" id="filter7">
      <feOffset dx="1" dy="1" in="SourceAlpha" result="shadowOffsetInner" />
      <feGaussianBlur stdDeviation="2.5" in="shadowOffsetInner" result="shadowGaussian" />
      <feComposite in2="shadowGaussian" operator="atop" in="SourceAlpha" result="shadowComposite" />
      <feColorMatrix type="matrix" values="0 0 0 0 0  0 0 0 0 0  0 0 0 0 0  0 0 0 0.698039215686274 0  " in="shadowComposite" />
    </filter>
    <g id="widget8">
      <path d="M 176 621  C 181.04 621  185 624.3  185 628.5  C 185 632.7  181.04 636  176 636  C 170.96 636  167 632.7  167 628.5  C 167 624.3  170.96 621  176 621  Z " fill-rule="nonzero" fill="#d9001b" stroke="none" />
      <path d="M 176 621.5  C 180.76 621.5  184.5 624.58  184.5 628.5  C 184.5 632.42  180.76 635.5  176 635.5  C 171.24 635.5  167.5 632.42  167.5 628.5  C 167.5 624.58  171.24 621.5  176 621.5  Z " stroke-width="1" stroke="#ffffff" fill="none" />
    </g>
  </defs>
  <g transform="matrix(1 0 0 1 -163 -617 )">
    <use xlink:href="#widget8" filter="url(#filter7)" />
    <use xlink:href="#widget8" />
  </g>
</svg>