<?xml version="1.0" encoding="utf-8"?>
<svg version="1.1" xmlns:xlink="http://www.w3.org/1999/xlink" width="61px" height="65px" xmlns="http://www.w3.org/2000/svg">
  <g transform="matrix(1 0 0 1 -57 -284 )">
    <path d="M 87.5 284  C 104.58 284  118 298.3  118 316.5  C 118 334.7  104.58 349  87.5 349  C 70.42 349  57 334.7  57 316.5  C 57 298.3  70.42 284  87.5 284  Z " fill-rule="nonzero" fill="#ffffff" stroke="none" />
    <path d="M 87.5 284.5  C 104.3 284.5  117.5 298.58  117.5 316.5  C 117.5 334.42  104.3 348.5  87.5 348.5  C 70.7 348.5  57.5 334.42  57.5 316.5  C 57.5 298.58  70.7 284.5  87.5 284.5  Z " stroke-width="1" stroke="#797979" fill="none" />
  </g>
</svg>