<?xml version="1.0" encoding="utf-8"?>
<svg version="1.1" xmlns:xlink="http://www.w3.org/1999/xlink" width="21px" height="24px" xmlns="http://www.w3.org/2000/svg">
  <g transform="matrix(1 0 0 1 -309 -68 )">
    <path d="M 20.9552556818182 18.5965909090909  C 20.9850852272727 18.6761363636364  21 18.7954545454545  21 18.9545454545455  C 21 19.2613636363636  20.9502840909091 19.6619318181818  20.8508522727273 20.15625  C 20.7514204545455 20.6505681818182  20.6470170454545 21.0397727272727  20.5376420454545 21.3238636363636  C 20.3288352272727 21.8920454545455  19.7223011363636 22.4943181818182  18.7180397727273 23.1306818181818  C 17.7833806818182 23.7102272727273  16.8586647727273 24  15.9438920454545 24  C 15.6754261363636 24  15.4119318181818 23.9801136363636  15.1534090909091 23.9403409090909  C 14.8948863636364 23.9005681818182  14.6090198863636 23.8295454545455  14.2958096590909 23.7272727272727  C 13.9825994318182 23.625  13.7489346590909 23.5426136363636  13.5948153409091 23.4801136363636  C 13.4406960227273 23.4176136363636  13.1647727272727 23.3011363636364  12.7670454545455 23.1306818181818  C 12.3693181818182 22.9602272727273  12.1257102272727 22.8579545454545  12.0362215909091 22.8238636363636  C 11.0617897727273 22.4261363636364  10.1917613636364 21.9545454545455  9.42613636363636 21.4090909090909  C 8.16335227272727 20.5113636363636  6.85085227272727 19.2840909090909  5.48863636363636 17.7272727272727  C 4.12642045454546 16.1704545454545  3.05255681818182 14.6704545454545  2.26704545454545 13.2272727272727  C 1.78977272727273 12.3522727272727  1.37713068181818 11.3579545454545  1.02911931818182 10.2443181818182  C 0.999289772727273 10.1420454545455  0.909801136363636 9.86363636363636  0.760653409090909 9.40909090909091  C 0.611505681818182 8.95454545454545  0.509588068181818 8.63920454545454  0.454900568181818 8.46306818181818  C 0.400213068181818 8.28693181818182  0.328125 8.01988636363636  0.238636363636364 7.66193181818182  C 0.149147727272727 7.30397727272727  0.0870028409090909 6.97727272727273  0.0522017045454545 6.68181818181818  C 0.0174005681818182 6.38636363636363  0 6.08522727272727  0 5.77840909090909  C 0 4.73295454545454  0.253551136363636 3.67613636363636  0.760653409090909 2.60795454545455  C 1.31747159090909 1.46022727272727  1.84446022727273 0.767045454545455  2.34161931818182 0.52840909090909  C 2.59019886363636 0.403409090909089  2.93075284090909 0.284090909090907  3.36328125 0.170454545454545  C 3.79580965909091 0.0568181818181808  4.14630681818182 0  4.41477272727273 0  C 4.55397727272727 0  4.65838068181818 0.017045454545455  4.72798295454545 0.0511363636363624  C 4.90696022727273 0.119318181818183  5.17045454545455 0.551136363636363  5.51846590909091 1.34659090909091  C 5.62784090909091 1.5625  5.77698863636364 1.86931818181818  5.96590909090909 2.26704545454546  C 6.15482954545455 2.66477272727273  6.32883522727273 3.02556818181818  6.48792613636364 3.34943181818182  C 6.64701704545455 3.67329545454546  6.80113636363636 3.97727272727273  6.95028409090909 4.26136363636364  C 6.98011363636364 4.30681818181818  7.06711647727273 4.44886363636364  7.21129261363636 4.6875  C 7.35546875 4.92613636363636  7.46235795454546 5.12784090909091  7.53196022727273 5.29261363636364  C 7.6015625 5.45738636363636  7.63636363636364 5.61931818181818  7.63636363636364 5.77840909090909  C 7.63636363636364 6.00568181818182  7.49467329545455 6.28977272727273  7.21129261363636 6.63068181818182  C 6.92791193181818 6.97159090909091  6.61967329545455 7.28409090909091  6.28657670454546 7.56818181818182  C 5.95348011363636 7.85227272727272  5.64524147727273 8.15340909090909  5.36186079545455 8.47159090909091  C 5.07848011363636 8.78977272727273  4.93678977272727 9.05113636363636  4.93678977272727 9.25568181818182  C 4.93678977272727 9.35795454545455  4.96164772727273 9.48579545454546  5.01136363636364 9.63920454545455  C 5.06107954545455 9.79261363636364  5.10333806818182 9.90909090909091  5.13813920454545 9.98863636363636  C 5.17294034090909 10.0681818181818  5.24254261363636 10.2045454545455  5.34694602272727 10.3977272727273  C 5.45134943181818 10.5909090909091  5.50852272727273 10.6988636363636  5.51846590909091 10.7215909090909  C 6.27414772727273 12.2784090909091  7.13920454545455 13.6136363636364  8.11363636363636 14.7272727272727  C 9.08806818181818 15.8409090909091  10.2563920454545 16.8295454545455  11.6186079545455 17.6931818181818  C 11.6384943181818 17.7045454545455  11.7329545454545 17.7698863636364  11.9019886363636 17.8892045454545  C 12.0710227272727 18.0085227272727  12.1903409090909 18.0880681818182  12.2599431818182 18.1278409090909  C 12.3295454545455 18.1676136363636  12.4314630681818 18.2159090909091  12.5656960227273 18.2727272727273  C 12.6999289772727 18.3295454545455  12.8117897727273 18.3579545454545  12.9012784090909 18.3579545454545  C 13.0802556818182 18.3579545454545  13.3089488636364 18.1960227272727  13.5873579545455 17.8721590909091  C 13.8657670454545 17.5482954545455  14.1292613636364 17.1960227272727  14.3778409090909 16.8153409090909  C 14.6264204545455 16.4346590909091  14.8998579545455 16.0823863636364  15.1981534090909 15.7585227272727  C 15.4964488636364 15.4346590909091  15.7450284090909 15.2727272727273  15.9438920454545 15.2727272727273  C 16.0830965909091 15.2727272727273  16.2247869318182 15.3125  16.3689630681818 15.3920454545455  C 16.5131392045455 15.4715909090909  16.6896306818182 15.59375  16.8984375 15.7585227272727  C 17.1072443181818 15.9232954545455  17.2315340909091 16.0227272727273  17.2713068181818 16.0568181818182  C 17.5198863636364 16.2272727272727  17.7858664772727 16.4034090909091  18.0692471590909 16.5852272727273  C 18.3526278409091 16.7670454545455  18.6683238636364 16.9659090909091  19.0163352272727 17.1818181818182  C 19.3643465909091 17.3977272727273  19.6328125 17.5681818181818  19.8217329545455 17.6931818181818  C 20.5177556818182 18.0909090909091  20.8955965909091 18.3920454545455  20.9552556818182 18.5965909090909  Z " fill-rule="nonzero" fill="#000000" stroke="none" transform="matrix(1 0 0 1 309 68 )" />
  </g>
</svg>