<?xml version="1.0" encoding="utf-8"?>
<svg version="1.1" xmlns:xlink="http://www.w3.org/1999/xlink" width="375px" height="124px" xmlns="http://www.w3.org/2000/svg">
  <defs>
    <mask fill="white" id="clip28">
      <path d="M 0 124  L 0 0  L 375 0  L 375 124  L 191 124  L 44.6000000000022 124  L 0 124  Z " fill-rule="evenodd" />
    </mask>
  </defs>
  <g transform="matrix(1 0 0 1 0 -64 )">
    <path d="M 0 124  L 0 0  L 375 0  L 375 124  L 191 124  L 44.6000000000022 124  L 0 124  Z " fill-rule="nonzero" fill="#00ffff" stroke="none" transform="matrix(1 0 0 1 0 64 )" />
    <path d="M 0 124  L 0 0  L 375 0  L 375 124  L 191 124  L 44.6000000000022 124  L 0 124  Z " stroke-width="2" stroke="#797979" fill="none" transform="matrix(1 0 0 1 0 64 )" mask="url(#clip28)" />
  </g>
</svg>