<?xml version="1.0" encoding="utf-8"?>
<svg version="1.1" xmlns:xlink="http://www.w3.org/1999/xlink" width="22px" height="26px" xmlns="http://www.w3.org/2000/svg">
  <g transform="matrix(1 0 0 1 -311 -463 )">
    <path d="M 21.953125 20.1463068181818  C 21.984375 20.2324810606061  22 20.3617424242424  22 20.5340909090909  C 22 20.8664772727273  21.9479166666667 21.3004261363636  21.84375 21.8359375  C 21.7395833333333 22.3714488636364  21.6302083333333 22.7930871212121  21.515625 23.1008522727273  C 21.296875 23.7163825757576  20.6614583333333 24.3688446969697  19.609375 25.0582386363636  C 18.6302083333333 25.6860795454545  17.6614583333333 26  16.703125 26  C 16.421875 26  16.1458333333333 25.9784564393939  15.875 25.9353693181818  C 15.6041666666667 25.8922821969697  15.3046875 25.8153409090909  14.9765625 25.7045454545455  C 14.6484375 25.59375  14.4036458333333 25.5044981060606  14.2421875 25.4367897727273  C 14.0807291666667 25.3690814393939  13.7916666666667 25.2428977272727  13.375 25.0582386363636  C 12.9583333333333 24.8735795454545  12.703125 24.7627840909091  12.609375 24.7258522727273  C 11.5885416666667 24.2949810606061  10.6770833333333 23.7840909090909  9.875 23.1931818181818  C 8.55208333333333 22.2206439393939  7.17708333333333 20.8910984848485  5.75 19.2045454545455  C 4.32291666666667 17.5179924242424  3.19791666666667 15.8929924242424  2.375 14.3295454545455  C 1.875 13.3816287878788  1.44270833333333 12.3044507575758  1.078125 11.0980113636364  C 1.046875 10.9872159090909  0.953125 10.6856060606061  0.796875 10.1931818181818  C 0.640625 9.70075757575757  0.533854166666667 9.35913825757575  0.4765625 9.16832386363637  C 0.419270833333333 8.97750946969697  0.34375 8.68821022727273  0.25 8.30042613636363  C 0.15625 7.91264204545454  0.0911458333333333 7.55871212121212  0.0546875 7.23863636363636  C 0.0182291666666667 6.9185606060606  0 6.59232954545455  0 6.25994318181818  C 0 5.12736742424242  0.265625 3.98248106060606  0.796875 2.82528409090909  C 1.38020833333333 1.58191287878787  1.93229166666667 0.83096590909091  2.453125 0.572443181818181  C 2.71354166666667 0.437026515151513  3.0703125 0.307765151515149  3.5234375 0.18465909090909  C 3.9765625 0.0615530303030292  4.34375 0  4.625 0  C 4.77083333333333 0  4.88020833333333 0.0184659090909096  4.953125 0.055397727272726  C 5.140625 0.129261363636364  5.41666666666667 0.597064393939394  5.78125 1.45880681818182  C 5.89583333333333 1.69270833333333  6.05208333333333 2.02509469696969  6.25 2.45596590909091  C 6.44791666666667 2.88683712121212  6.63020833333333 3.27769886363636  6.796875 3.62855113636364  C 6.96354166666667 3.97940340909091  7.125 4.30871212121212  7.28125 4.61647727272727  C 7.3125 4.66571969696969  7.40364583333333 4.81960227272727  7.5546875 5.078125  C 7.70572916666667 5.33664772727273  7.81770833333333 5.55516098484848  7.890625 5.73366477272727  C 7.96354166666667 5.91216856060606  8 6.08759469696969  8 6.25994318181818  C 8 6.5061553030303  7.8515625 6.81392045454546  7.5546875 7.18323863636364  C 7.2578125 7.55255681818182  6.93489583333333 7.89109848484848  6.5859375 8.19886363636363  C 6.23697916666667 8.50662878787878  5.9140625 8.83285984848485  5.6171875 9.17755681818182  C 5.3203125 9.52225378787879  5.171875 9.80539772727273  5.171875 10.0269886363636  C 5.171875 10.1377840909091  5.19791666666667 10.2762784090909  5.25 10.4424715909091  C 5.30208333333333 10.6086647727273  5.34635416666667 10.7348484848485  5.3828125 10.8210227272727  C 5.41927083333333 10.907196969697  5.4921875 11.0549242424242  5.6015625 11.2642045454545  C 5.7109375 11.4734848484848  5.77083333333333 11.5904356060606  5.78125 11.6150568181818  C 6.57291666666667 13.3016098484848  7.47916666666667 14.7481060606061  8.5 15.9545454545455  C 9.52083333333333 17.1609848484848  10.7447916666667 18.2320075757576  12.171875 19.1676136363636  C 12.1927083333333 19.1799242424242  12.2916666666667 19.2507102272727  12.46875 19.3799715909091  C 12.6458333333333 19.5092329545455  12.7708333333333 19.5954071969697  12.84375 19.6384943181818  C 12.9166666666667 19.6815814393939  13.0234375 19.7339015151515  13.1640625 19.7954545454545  C 13.3046875 19.8570075757576  13.421875 19.8877840909091  13.515625 19.8877840909091  C 13.703125 19.8877840909091  13.9427083333333 19.7123579545455  14.234375 19.3615056818182  C 14.5260416666667 19.0106534090909  14.8020833333333 18.6290246212121  15.0625 18.2166193181818  C 15.3229166666667 17.8042140151515  15.609375 17.4225852272727  15.921875 17.0717329545455  C 16.234375 16.7208806818182  16.4947916666667 16.5454545454545  16.703125 16.5454545454545  C 16.8489583333333 16.5454545454545  16.9973958333333 16.5885416666667  17.1484375 16.6747159090909  C 17.2994791666667 16.7608901515151  17.484375 16.8932291666667  17.703125 17.0717329545455  C 17.921875 17.2502367424242  18.0520833333333 17.3579545454545  18.09375 17.3948863636364  C 18.3541666666667 17.5795454545455  18.6328125 17.7703598484848  18.9296875 17.9673295454545  C 19.2265625 18.1642992424242  19.5572916666667 18.3797348484848  19.921875 18.6136363636364  C 20.2864583333333 18.8475378787879  20.5677083333333 19.032196969697  20.765625 19.1676136363636  C 21.4947916666667 19.5984848484848  21.890625 19.9247159090909  21.953125 20.1463068181818  Z " fill-rule="nonzero" fill="#000000" stroke="none" transform="matrix(1 0 0 1 311 463 )" />
  </g>
</svg>