<?xml version="1.0" encoding="utf-8"?>
<svg version="1.1" xmlns:xlink="http://www.w3.org/1999/xlink" width="22px" height="30px" xmlns="http://www.w3.org/2000/svg">
  <g transform="matrix(1 0 0 1 -312 -507 )">
    <path d="M 21.953125 23.2457386363636  C 21.984375 23.3451704545455  22 23.4943181818182  22 23.6931818181818  C 22 24.0767045454545  21.9479166666667 24.5774147727273  21.84375 25.1953125  C 21.7395833333333 25.8132102272727  21.6302083333333 26.2997159090909  21.515625 26.6548295454545  C 21.296875 27.3650568181818  20.6614583333333 28.1178977272727  19.609375 28.9133522727273  C 18.6302083333333 29.6377840909091  17.6614583333333 30  16.703125 30  C 16.421875 30  16.1458333333333 29.9751420454545  15.875 29.9254261363636  C 15.6041666666667 29.8757102272727  15.3046875 29.7869318181818  14.9765625 29.6590909090909  C 14.6484375 29.53125  14.4036458333333 29.4282670454545  14.2421875 29.3501420454545  C 14.0807291666667 29.2720170454545  13.7916666666667 29.1264204545455  13.375 28.9133522727273  C 12.9583333333333 28.7002840909091  12.703125 28.5724431818182  12.609375 28.5298295454545  C 11.5885416666667 28.0326704545455  10.6770833333333 27.4431818181818  9.875 26.7613636363636  C 8.55208333333333 25.6392045454545  7.17708333333333 24.1051136363636  5.75 22.1590909090909  C 4.32291666666667 20.2130681818182  3.19791666666667 18.3380681818182  2.375 16.5340909090909  C 1.875 15.4403409090909  1.44270833333333 14.1974431818182  1.078125 12.8053977272727  C 1.046875 12.6775568181818  0.953125 12.3295454545455  0.796875 11.7613636363636  C 0.640625 11.1931818181818  0.533854166666667 10.7990056818182  0.4765625 10.5788352272727  C 0.419270833333333 10.3586647727273  0.34375 10.0248579545455  0.25 9.57741477272727  C 0.15625 9.12997159090909  0.0911458333333333 8.72159090909091  0.0546875 8.35227272727273  C 0.0182291666666667 7.98295454545454  0 7.60653409090909  0 7.22301136363636  C 0 5.91619318181818  0.265625 4.59517045454545  0.796875 3.25994318181818  C 1.38020833333333 1.82528409090909  1.93229166666667 0.958806818181819  2.453125 0.660511363636362  C 2.71354166666667 0.504261363636361  3.0703125 0.355113636363633  3.5234375 0.213068181818181  C 3.9765625 0.071022727272726  4.34375 0  4.625 0  C 4.77083333333333 0  4.88020833333333 0.0213068181818188  4.953125 0.063920454545453  C 5.140625 0.149147727272728  5.41666666666667 0.688920454545454  5.78125 1.68323863636364  C 5.89583333333333 1.953125  6.05208333333333 2.33664772727272  6.25 2.83380681818182  C 6.44791666666667 3.33096590909091  6.63020833333333 3.78196022727273  6.796875 4.18678977272727  C 6.96354166666667 4.59161931818182  7.125 4.97159090909091  7.28125 5.32670454545455  C 7.3125 5.38352272727272  7.40364583333333 5.56107954545455  7.5546875 5.859375  C 7.70572916666667 6.15767045454545  7.81770833333333 6.40980113636363  7.890625 6.61576704545455  C 7.96354166666667 6.82173295454545  8 7.02414772727272  8 7.22301136363636  C 8 7.50710227272727  7.8515625 7.86221590909091  7.5546875 8.28835227272727  C 7.2578125 8.71448863636364  6.93489583333333 9.10511363636363  6.5859375 9.46022727272727  C 6.23697916666667 9.8153409090909  5.9140625 10.1917613636364  5.6171875 10.5894886363636  C 5.3203125 10.9872159090909  5.171875 11.3139204545455  5.171875 11.5696022727273  C 5.171875 11.6974431818182  5.19791666666667 11.8572443181818  5.25 12.0490056818182  C 5.30208333333333 12.2407670454545  5.34635416666667 12.3863636363636  5.3828125 12.4857954545455  C 5.41927083333333 12.5852272727273  5.4921875 12.7556818181818  5.6015625 12.9971590909091  C 5.7109375 13.2386363636364  5.77083333333333 13.3735795454545  5.78125 13.4019886363636  C 6.57291666666667 15.3480113636364  7.47916666666667 17.0170454545455  8.5 18.4090909090909  C 9.52083333333333 19.8011363636364  10.7447916666667 21.0369318181818  12.171875 22.1164772727273  C 12.1927083333333 22.1306818181818  12.2916666666667 22.2123579545455  12.46875 22.3615056818182  C 12.6458333333333 22.5106534090909  12.7708333333333 22.6100852272727  12.84375 22.6598011363636  C 12.9166666666667 22.7095170454545  13.0234375 22.7698863636364  13.1640625 22.8409090909091  C 13.3046875 22.9119318181818  13.421875 22.9474431818182  13.515625 22.9474431818182  C 13.703125 22.9474431818182  13.9427083333333 22.7450284090909  14.234375 22.3401988636364  C 14.5260416666667 21.9353693181818  14.8020833333333 21.4950284090909  15.0625 21.0191761363636  C 15.3229166666667 20.5433238636364  15.609375 20.1029829545455  15.921875 19.6981534090909  C 16.234375 19.2933238636364  16.4947916666667 19.0909090909091  16.703125 19.0909090909091  C 16.8489583333333 19.0909090909091  16.9973958333333 19.140625  17.1484375 19.2400568181818  C 17.2994791666667 19.3394886363636  17.484375 19.4921875  17.703125 19.6981534090909  C 17.921875 19.9041193181818  18.0520833333333 20.0284090909091  18.09375 20.0710227272727  C 18.3541666666667 20.2840909090909  18.6328125 20.5042613636364  18.9296875 20.7315340909091  C 19.2265625 20.9588068181818  19.5572916666667 21.2073863636364  19.921875 21.4772727272727  C 20.2864583333333 21.7471590909091  20.5677083333333 21.9602272727273  20.765625 22.1164772727273  C 21.4947916666667 22.6136363636364  21.890625 22.9900568181818  21.953125 23.2457386363636  Z " fill-rule="nonzero" fill="#000000" stroke="none" transform="matrix(1 0 0 1 312 507 )" />
  </g>
</svg>