<?xml version="1.0" encoding="utf-8"?>
<svg version="1.1" xmlns:xlink="http://www.w3.org/1999/xlink" width="23px" height="24px" xmlns="http://www.w3.org/2000/svg">
  <g transform="matrix(1 0 0 1 -285 -302 )">
    <path d="M 22.9509943181818 18.5965909090909  C 22.9836647727273 18.6761363636364  23 18.7954545454545  23 18.9545454545455  C 23 19.2613636363636  22.9455492424242 19.6619318181818  22.8366477272727 20.15625  C 22.7277462121212 20.6505681818182  22.6133996212121 21.0397727272727  22.4936079545455 21.3238636363636  C 22.2649147727273 21.8920454545455  21.600615530303 22.4943181818182  20.5007102272727 23.1306818181818  C 19.4770359848485 23.7102272727273  18.4642518939394 24  17.4623579545455 24  C 17.1683238636364 24  16.8797348484849 23.9801136363636  16.5965909090909 23.9403409090909  C 16.313446969697 23.9005681818182  16.0003551136364 23.8295454545455  15.6573153409091 23.7272727272727  C 15.3142755681818 23.625  15.0583570075758 23.5426136363636  14.8895596590909 23.4801136363636  C 14.7207623106061 23.4176136363636  14.4185606060606 23.3011363636364  13.9829545454545 23.1306818181818  C 13.5473484848485 22.9602272727273  13.2805397727273 22.8579545454545  13.1825284090909 22.8238636363636  C 12.1152935606061 22.4261363636364  11.1624053030303 21.9545454545455  10.3238636363636 21.4090909090909  C 8.94081439393939 20.5113636363636  7.50331439393939 19.2840909090909  6.01136363636364 17.7272727272727  C 4.51941287878788 16.1704545454545  3.34327651515152 14.6704545454545  2.48295454545455 13.2272727272727  C 1.96022727272727 12.3522727272727  1.50828598484848 11.3579545454545  1.12713068181818 10.2443181818182  C 1.09446022727273 10.1420454545455  0.996448863636364 9.86363636363636  0.833096590909091 9.40909090909091  C 0.669744318181818 8.95454545454545  0.558120265151515 8.63920454545454  0.498224431818182 8.46306818181818  C 0.438328598484849 8.28693181818182  0.359375 8.01988636363636  0.261363636363636 7.66193181818182  C 0.163352272727273 7.30397727272727  0.0952888257575758 6.97727272727273  0.0571732954545455 6.68181818181818  C 0.0190577651515151 6.38636363636363  0 6.08522727272727  0 5.77840909090909  C 0 4.73295454545454  0.277698863636364 3.67613636363636  0.833096590909091 2.60795454545455  C 1.44294507575758 1.46022727272727  2.02012310606061 0.767045454545455  2.56463068181818 0.52840909090909  C 2.83688446969697 0.403409090909089  3.20987215909091 0.284090909090907  3.68359375 0.170454545454545  C 4.15731534090909 0.0568181818181808  4.54119318181818 0  4.83522727272727 0  C 4.98768939393939 0  5.10203598484849 0.017045454545455  5.17826704545455 0.0511363636363624  C 5.37428977272727 0.119318181818183  5.66287878787879 0.551136363636363  6.04403409090909 1.34659090909091  C 6.16382575757576 1.5625  6.32717803030303 1.86931818181818  6.53409090909091 2.26704545454546  C 6.74100378787879 2.66477272727273  6.93158143939394 3.02556818181818  7.10582386363636 3.34943181818182  C 7.28006628787879 3.67329545454546  7.44886363636364 3.97727272727273  7.61221590909091 4.26136363636364  C 7.64488636363636 4.30681818181818  7.74017518939394 4.44886363636364  7.89808238636364 4.6875  C 8.05598958333334 4.92613636363636  8.17305871212121 5.12784090909091  8.24928977272727 5.29261363636364  C 8.32552083333333 5.45738636363636  8.36363636363636 5.61931818181818  8.36363636363636 5.77840909090909  C 8.36363636363636 6.00568181818182  8.20845170454546 6.28977272727273  7.89808238636364 6.63068181818182  C 7.58771306818182 6.97159090909091  7.25011837121212 7.28409090909091  6.88529829545455 7.56818181818182  C 6.52047821969697 7.85227272727272  6.18288352272727 8.15340909090909  5.87251420454545 8.47159090909091  C 5.56214488636364 8.78977272727273  5.40696022727273 9.05113636363636  5.40696022727273 9.25568181818182  C 5.40696022727273 9.35795454545455  5.43418560606061 9.48579545454546  5.48863636363636 9.63920454545455  C 5.54308712121212 9.79261363636364  5.58937026515152 9.90909090909091  5.62748579545455 9.98863636363636  C 5.66560132575758 10.0681818181818  5.74183238636364 10.2045454545455  5.85617897727273 10.3977272727273  C 5.97052556818182 10.5909090909091  6.03314393939394 10.6988636363636  6.04403409090909 10.7215909090909  C 6.87168560606061 12.2784090909091  7.81912878787879 13.6136363636364  8.88636363636364 14.7272727272727  C 9.95359848484849 15.8409090909091  11.2331912878788 16.8295454545455  12.7251420454545 17.6931818181818  C 12.7469223484848 17.7045454545455  12.8503787878788 17.7698863636364  13.0355113636364 17.8892045454545  C 13.2206439393939 18.0085227272727  13.3513257575758 18.0880681818182  13.4275568181818 18.1278409090909  C 13.5037878787879 18.1676136363636  13.6154119318182 18.2159090909091  13.7624289772727 18.2727272727273  C 13.9094460227273 18.3295454545455  14.0319602272727 18.3579545454545  14.1299715909091 18.3579545454545  C 14.3259943181818 18.3579545454545  14.5764678030303 18.1960227272727  14.8813920454545 17.8721590909091  C 15.1863162878788 17.5482954545455  15.4749053030303 17.1960227272727  15.7471590909091 16.8153409090909  C 16.0194128787879 16.4346590909091  16.3188920454545 16.0823863636364  16.6455965909091 15.7585227272727  C 16.9723011363636 15.4346590909091  17.2445549242424 15.2727272727273  17.4623579545455 15.2727272727273  C 17.6148200757576 15.2727272727273  17.7700047348485 15.3125  17.9279119318182 15.3920454545455  C 18.0858191287879 15.4715909090909  18.2791193181818 15.59375  18.5078125 15.7585227272727  C 18.7365056818182 15.9232954545455  18.8726325757576 16.0227272727273  18.9161931818182 16.0568181818182  C 19.188446969697 16.2272727272727  19.4797585227273 16.4034090909091  19.7901278409091 16.5852272727273  C 20.1004971590909 16.7670454545455  20.446259469697 16.9659090909091  20.8274147727273 17.1818181818182  C 21.2085700757576 17.3977272727273  21.5026041666667 17.5681818181818  21.7095170454545 17.6931818181818  C 22.4718276515152 18.0909090909091  22.8856534090909 18.3920454545455  22.9509943181818 18.5965909090909  Z " fill-rule="nonzero" fill="#a30014" stroke="none" transform="matrix(1 0 0 1 285 302 )" />
  </g>
</svg>