<?xml version="1.0" encoding="utf-8"?>
<svg version="1.1" xmlns:xlink="http://www.w3.org/1999/xlink" width="40px" height="50px" xmlns="http://www.w3.org/2000/svg">
  <defs>
    <mask fill="white" id="clip44">
      <path d="M 30 14  C 30 18.2259456058127  28.3927245363042 21.7375465610937  26.0838080999973 25.1385591932333  C 24.8129748848291 27.0104848074157  23.3295845649844 28.8489084815806  21.7846430626975 30.7545008305515  C 19.4943788302551 33.5794039042303  17.0688502004627 36.5519163325621  15 40  C 9 30  0 24  0 14  C 0 8.79999999999995  3 0  15 0  C 27 0  30 8.79999999999995  30 14  Z " fill-rule="evenodd" />
    </mask>
    <filter x="204px" y="1672px" width="40px" height="50px" filterUnits="userSpaceOnUse" id="filter45">
      <feOffset dx="1" dy="1" in="SourceAlpha" result="shadowOffsetInner" />
      <feGaussianBlur stdDeviation="2.5" in="shadowOffsetInner" result="shadowGaussian" />
      <feComposite in2="shadowGaussian" operator="atop" in="SourceAlpha" result="shadowComposite" />
      <feColorMatrix type="matrix" values="0 0 0 0 0  0 0 0 0 0  0 0 0 0 0  0 0 0 0.698039215686274 0  " in="shadowComposite" />
    </filter>
    <g id="widget46">
      <path d="M 30 14  C 30 18.2259456058127  28.3927245363042 21.7375465610937  26.0838080999973 25.1385591932333  C 24.8129748848291 27.0104848074157  23.3295845649844 28.8489084815806  21.7846430626975 30.7545008305515  C 19.4943788302551 33.5794039042303  17.0688502004627 36.5519163325621  15 40  C 9 30  0 24  0 14  C 0 8.79999999999995  3 0  15 0  C 27 0  30 8.79999999999995  30 14  Z " fill-rule="nonzero" fill="#d9001b" stroke="none" transform="matrix(1 0 0 1 208 1676 )" />
      <path d="M 30 14  C 30 18.2259456058127  28.3927245363042 21.7375465610937  26.0838080999973 25.1385591932333  C 24.8129748848291 27.0104848074157  23.3295845649844 28.8489084815806  21.7846430626975 30.7545008305515  C 19.4943788302551 33.5794039042303  17.0688502004627 36.5519163325621  15 40  C 9 30  0 24  0 14  C 0 8.79999999999995  3 0  15 0  C 27 0  30 8.79999999999995  30 14  Z " stroke-width="2" stroke="#ffffff" fill="none" transform="matrix(1 0 0 1 208 1676 )" mask="url(#clip44)" />
    </g>
  </defs>
  <g transform="matrix(1 0 0 1 -204 -1672 )">
    <use xlink:href="#widget46" filter="url(#filter45)" />
    <use xlink:href="#widget46" />
  </g>
</svg>