<?xml version="1.0" encoding="utf-8"?>
<svg version="1.1" xmlns:xlink="http://www.w3.org/1999/xlink" width="26px" height="16px" xmlns="http://www.w3.org/2000/svg">
  <g transform="matrix(1 0 0 1 -139 -240 )">
    <path d="M 21.4151785714286 8.58333333333333  C 23.233630952381 7.27777777777778  24.1428571428571 6.04166666666667  24.1428571428571 4.875  C 24.1428571428571 4.3125  24.0388764880952 3.81597222222222  23.8309151785714 3.38541666666667  C 23.6229538690476 2.95486111111111  23.3569568452381 2.61284722222222  23.0329241071429 2.359375  C 22.7088913690476 2.10590277777778  22.3147321428571 1.89930555555556  21.8504464285714 1.73958333333333  C 21.3861607142857 1.57986111111111  20.9315476190476 1.47222222222222  20.4866071428571 1.41666666666667  C 20.0416666666667 1.36111111111111  19.5677083333333 1.33333333333333  19.0647321428571 1.33333333333333  C 18.561755952381 1.33333333333333  18.0200892857143 1.421875  17.4397321428571 1.59895833333333  C 16.859375 1.77604166666667  16.324962797619 1.99826388888889  15.8364955357143 2.265625  C 15.3480282738095 2.53298611111111  14.9296875 2.78298611111111  14.5814732142857 3.015625  C 14.2332589285714 3.24826388888889  13.9430803571429 3.46180555555556  13.7109375 3.65625  C 13.5368303571429 3.80902777777778  13.2998511904762 3.88541666666667  13 3.88541666666667  C 12.7001488095238 3.88541666666667  12.4631696428571 3.80902777777778  12.2890625 3.65625  C 12.0569196428571 3.46180555555556  11.7667410714286 3.24826388888889  11.4185267857143 3.015625  C 11.0703125 2.78298611111111  10.6519717261905 2.53298611111111  10.1635044642857 2.265625  C 9.67503720238095 1.99826388888889  9.140625 1.77604166666667  8.56026785714286 1.59895833333333  C 7.97991071428571 1.421875  7.43824404761905 1.33333333333333  6.93526785714286 1.33333333333333  C 6.43229166666667 1.33333333333333  5.95833333333333 1.36111111111111  5.51339285714286 1.41666666666667  C 5.06845238095238 1.47222222222222  4.61383928571429 1.57986111111111  4.14955357142857 1.73958333333333  C 3.68526785714286 1.89930555555556  3.29110863095238 2.10590277777778  2.96707589285714 2.359375  C 2.64304315476191 2.61284722222222  2.37704613095238 2.95486111111111  2.16908482142857 3.38541666666667  C 1.96112351190476 3.81597222222222  1.85714285714286 4.3125  1.85714285714286 4.875  C 1.85714285714286 6.04166666666667  2.76153273809524 7.27430555555556  4.5703125 8.57291666666667  L 13 14.40625  L 21.4151785714286 8.58333333333333  Z M 24.1573660714286 1.29166666666667  C 25.3857886904762 2.15277777777778  26 3.34722222222222  26 4.875  C 26 6.40972222222222  24.8924851190476 7.97222222222222  22.6774553571429 9.5625  L 13.6383928571429 15.8125  C 13.4642857142857 15.9375  13.2514880952381 16  13 16  C 12.7485119047619 16  12.5357142857143 15.9375  12.3616071428571 15.8125  L 3.30803571428571 9.54166666666667  C 3.21130952380952 9.48611111111111  3.07831101190476 9.39583333333333  2.90904017857143 9.27083333333333  C 2.7397693452381 9.14583333333333  2.47135416666667 8.91840277777778  2.10379464285714 8.58854166666667  C 1.73623511904762 8.25868055555555  1.40736607142857 7.92013888888889  1.1171875 7.57291666666667  C 0.827008928571428 7.22569444444444  0.568266369047619 6.80555555555556  0.340959821428571 6.3125  C 0.113653273809524 5.81944444444444  0 5.34027777777778  0 4.875  C 0 3.34722222222222  0.614211309523809 2.15277777777778  1.84263392857143 1.29166666666667  C 3.07105654761905 0.430555555555555  4.76860119047619 0  6.93526785714286 0  C 7.53497023809524 0  8.14676339285714 0.0746527777777768  8.77064732142857 0.223958333333334  C 9.39453125 0.373263888888888  9.97488839285714 0.574652777777777  10.51171875 0.828125  C 11.0485491071429 1.08159722222222  11.5104166666667 1.31944444444444  11.8973214285714 1.54166666666667  C 12.2842261904762 1.76388888888889  12.6517857142857 2  13 2.25  C 13.3482142857143 2  13.7157738095238 1.76388888888889  14.1026785714286 1.54166666666667  C 14.4895833333333 1.31944444444444  14.9514508928571 1.08159722222222  15.48828125 0.828125  C 16.0251116071429 0.574652777777777  16.60546875 0.373263888888888  17.2293526785714 0.223958333333334  C 17.8532366071429 0.0746527777777768  18.4650297619048 0  19.0647321428571 0  C 21.2313988095238 0  22.928943452381 0.430555555555555  24.1573660714286 1.29166666666667  Z " fill-rule="nonzero" fill="#d9001b" stroke="none" transform="matrix(1 0 0 1 139 240 )" />
  </g>
</svg>