<?xml version="1.0" encoding="utf-8"?>
<svg version="1.1" xmlns:xlink="http://www.w3.org/1999/xlink" width="16px" height="21px" xmlns="http://www.w3.org/2000/svg">
  <g transform="matrix(1 0 0 1 -335 -234 )">
    <path d="M 14.0456026058632 13.302734375  C 14.4590662323561 12.044921875  14.6657980456026 10.7916666666667  14.6657980456026 9.54296875  C 14.6657980456026 9.14192708333333  14.6414766558089 8.62467447916667  14.5928338762215 7.9912109375  C 14.5441910966341 7.35774739583333  14.4816503800217 6.91796875  14.4052117263844 6.671875  C 14.3218241042345 6.3984375  14.2627578718784 6.19791666666667  14.228013029316 6.0703125  C 14.1932681867535 5.94270833333333  14.1619978284473 5.7763671875  14.1342019543974 5.5712890625  C 14.1064060803474 5.3662109375  14.0925081433225 5.14518229166667  14.0925081433225 4.908203125  C 14.0925081433225 4.69856770833333  14.1098805646037 4.38639322916667  14.1446254071661 3.9716796875  C 14.1793702497286 3.55696614583333  14.1967426710098 3.24934895833333  14.1967426710098 3.048828125  C 14.1967426710098 2.71158854166667  14.1619978284473 2.4609375  14.0925081433225 2.296875  C 14.0647122692725 2.28776041666667  14.0195439739414 2.283203125  13.957003257329 2.283203125  C 13.8249728555917 2.283203125  13.6234527687296 2.3037109375  13.3524429967427 2.3447265625  C 13.0814332247557 2.3857421875  12.8764386536374 2.40625  12.7374592833876 2.40625  C 12.3205211726384 2.40625  11.7090119435396 2.296875  10.9029315960912 2.078125  C 10.0968512486428 1.859375  9.48881650380022 1.75  9.07882736156352 1.75  C 8.7800217155266 1.75  8.45168295331162 1.80240885416666  8.09381107491857 1.9072265625  C 7.73593919652552 2.01204427083333  7.44060803474484 2.119140625  7.20781758957655 2.228515625  C 6.97502714440825 2.337890625  6.66406080347448 2.49283854166667  6.27491856677524 2.693359375  C 5.3229098805646 3.185546875  4.62106406080347 3.65494791666667  4.16938110749186 4.1015625  C 3.50228013029316 4.76692708333333  2.94809989142237 5.63053385416667  2.50684039087948 6.6923828125  C 2.06558089033659 7.75423177083333  1.75982627578719 8.82975260416667  1.58957654723127 9.9189453125  C 1.41932681867535 11.0081380208333  1.33420195439739 12.140625  1.33420195439739 13.31640625  C 1.33420195439739 13.6809895833333  1.37763300760043 14.2278645833333  1.46449511400651 14.95703125  C 1.5513572204126 15.6861979166667  1.59478827361564 16.2376302083333  1.59478827361564 16.611328125  C 1.59478827361564 16.8209635416667  1.55656894679696 17.1240234375  1.48013029315961 17.5205078125  C 1.40369163952226 17.9169921875  1.36547231270358 18.2154947916667  1.36547231270358 18.416015625  C 1.36547231270358 18.6165364583333  1.4071661237785 18.7828776041667  1.49055374592834 18.9150390625  C 1.57394136807818 19.0472005208333  1.69207383279045 19.11328125  1.84495114006515 19.11328125  C 2.01172638436482 19.11328125  2.26362649294245 19.0631510416667  2.60065146579805 18.962890625  C 2.93767643865364 18.8626302083333  3.19305103148751 18.8125  3.36677524429967 18.8125  C 3.7628664495114 18.8125  4.35179153094463 18.8831380208333  5.13355048859935 19.0244140625  C 5.91530944625407 19.1656901041667  6.5042345276873 19.236328125  6.90032573289902 19.236328125  C 8.15808903365907 19.236328125  9.14484256243214 19.072265625  9.86058631921824 18.744140625  C 10.757003257329 18.333984375  11.5752442996743 17.6389973958333  12.3153094462541 16.6591796875  C 13.0553745928339 15.6793619791667  13.6321389793703 14.560546875  14.0456026058632 13.302734375  Z M 15.9061889250814 7.6494140625  C 15.9687296416938 8.36490885416666  16 8.98697916666667  16 9.515625  C 16 11.01953125  15.756786102063 12.5120442708333  15.2703583061889 13.9931640625  C 14.7839305103149 15.4742838541667  14.1029315960912 16.7867838541667  13.2273615635179 17.9306640625  C 12.3517915309446 19.0745442708333  11.3754614549403 19.8971354166667  10.2983713355049 20.3984375  C 9.43669923995657 20.7994791666667  8.30401737242128 21  6.90032573289902 21  C 6.5042345276873 21  5.91357220412595 20.9339192708333  5.12833876221498 20.8017578125  C 4.34310532030402 20.6695963541667  3.75591748099891 20.603515625  3.36677524429967 20.603515625  C 3.2 20.603515625  2.94809989142237 20.6695963541667  2.61107491856678 20.8017578125  C 2.27404994571118 20.9339192708333  2.01867535287731 21  1.84495114006515 21  C 1.33767643865364 21  0.908577633007601 20.7470703125  0.557654723127036 20.2412109375  C 0.206731813246471 19.7353515625  0.0312703583061889 19.1497395833333  0.0312703583061889 18.484375  C 0.0312703583061889 18.265625  0.0694896851248643 17.9557291666667  0.145928338762215 17.5546875  C 0.222366992399566 17.1536458333333  0.260586319218241 16.8483072916667  0.260586319218241 16.638671875  C 0.260586319218241 16.2740885416667  0.217155266015201 15.7249348958333  0.130293159609121 14.9912109375  C 0.0434310532030402 14.2574869791667  0 13.7037760416667  0 13.330078125  C 0 12.318359375  0.0625407166123779 11.3271484375  0.187622149837134 10.3564453125  C 0.312703583061889 9.3857421875  0.502062975027144 8.43098958333333  0.755700325732899 7.4921875  C 1.00933767643865 6.55338541666667  1.3585233441911 5.66927083333333  1.80325732899023 4.83984375  C 2.24799131378936 4.01041666666667  2.76916395222584 3.29947916666666  3.36677524429967 2.70703125  C 3.90879478827362 2.16927083333333  4.71487513572204 1.62239583333333  5.78501628664495 1.06640625  C 7.13311617806732 0.355468750000001  8.23105320304017 0  9.07882736156352 0  C 9.4957654723127 0  10.1055374592834 0.109375000000001  10.9081433224756 0.328125  C 11.7107491856678 0.546874999999999  12.313572204126 0.65625  12.7166123778502 0.65625  C 12.8486427795874 0.65625  13.0466883821933 0.633463541666665  13.3107491856678 0.587890624999999  C 13.5748099891422 0.542317708333331  13.7763300760043 0.519531250000001  13.9153094462541 0.519531250000001  C 14.4781758957655 0.519531250000001  14.8881650380022 0.749674479166666  15.1452768729642 1.2099609375  C 15.4023887079262 1.67024739583333  15.5309446254072 2.283203125  15.5309446254072 3.048828125  C 15.5309446254072 3.25846354166666  15.513572204126 3.568359375  15.4788273615635 3.978515625  C 15.4440825190011 4.388671875  15.4267100977199 4.69856770833333  15.4267100977199 4.908203125  C 15.4267100977199 5.02669270833333  15.4336590662324 5.140625  15.4475570032573 5.25  C 15.4614549402823 5.359375  15.4736156351792 5.4345703125  15.4840390879479 5.4755859375  C 15.4944625407166 5.5166015625  15.5205211726384 5.61002604166667  15.5622149837134 5.755859375  C 15.6039087947883 5.90169270833333  15.6317046688382 5.99283854166667  15.6456026058632 6.029296875  C 15.756786102063 6.39388020833333  15.8436482084691 6.93391927083333  15.9061889250814 7.6494140625  Z " fill-rule="nonzero" fill="#a30014" stroke="none" transform="matrix(1 0 0 1 335 234 )" />
  </g>
</svg>