<?xml version="1.0" encoding="utf-8"?>
<svg version="1.1" xmlns:xlink="http://www.w3.org/1999/xlink" width="375px" height="157px" xmlns="http://www.w3.org/2000/svg">
  <defs>
    <mask fill="white" id="clip39">
      <path d="M 0 157  L 0 74.3684210526316  L 0 0  L 375 0  L 375 157  L 191 157  L 44.6000000000022 157  L 0 157  Z " fill-rule="evenodd" />
    </mask>
  </defs>
  <g transform="matrix(1 0 0 1 -3 -459 )">
    <path d="M 0 157  L 0 74.3684210526316  L 0 0  L 375 0  L 375 157  L 191 157  L 44.6000000000022 157  L 0 157  Z " fill-rule="nonzero" fill="#ffffff" stroke="none" transform="matrix(1 0 0 1 3 459 )" />
    <path d="M 0 157  L 0 74.3684210526316  L 0 0  L 375 0  L 375 157  L 191 157  L 44.6000000000022 157  L 0 157  Z " stroke-width="2" stroke="#797979" fill="none" transform="matrix(1 0 0 1 3 459 )" mask="url(#clip39)" />
  </g>
</svg>