<?xml version="1.0" encoding="utf-8"?>
<svg version="1.1" xmlns:xlink="http://www.w3.org/1999/xlink" width="63px" height="58px" xmlns="http://www.w3.org/2000/svg">
  <defs>
    <filter x="17px" y="104px" width="63px" height="58px" filterUnits="userSpaceOnUse" id="filter24">
      <feOffset dx="1" dy="1" in="SourceAlpha" result="shadowOffsetInner" />
      <feGaussianBlur stdDeviation="2.5" in="shadowOffsetInner" result="shadowGaussian" />
      <feComposite in2="shadowGaussian" operator="atop" in="SourceAlpha" result="shadowComposite" />
      <feColorMatrix type="matrix" values="0 0 0 0 0  0 0 0 0 0  0 0 0 0 0  0 0 0 0.698039215686274 0  " in="shadowComposite" />
    </filter>
    <g id="widget25">
      <path d="M 47.5 108  C 62.34 108  74 118.56  74 132  C 74 145.44  62.34 156  47.5 156  C 32.66 156  21 145.44  21 132  C 21 118.56  32.66 108  47.5 108  Z " fill-rule="nonzero" fill="#009dd9" stroke="none" />
      <path d="M 47.5 108.5  C 62.06 108.5  73.5 118.84  73.5 132  C 73.5 145.16  62.06 155.5  47.5 155.5  C 32.94 155.5  21.5 145.16  21.5 132  C 21.5 118.84  32.94 108.5  47.5 108.5  Z " stroke-width="1" stroke="#ffffff" fill="none" />
    </g>
  </defs>
  <g transform="matrix(1 0 0 1 -17 -104 )">
    <use xlink:href="#widget25" filter="url(#filter24)" />
    <use xlink:href="#widget25" />
  </g>
</svg>