<?xml version="1.0" encoding="utf-8"?>
<svg version="1.1" xmlns:xlink="http://www.w3.org/1999/xlink" width="57px" height="58px" xmlns="http://www.w3.org/2000/svg">
  <defs>
    <filter x="29px" y="188px" width="57px" height="58px" filterUnits="userSpaceOnUse" id="filter26">
      <feOffset dx="1" dy="1" in="SourceAlpha" result="shadowOffsetInner" />
      <feGaussianBlur stdDeviation="2.5" in="shadowOffsetInner" result="shadowGaussian" />
      <feComposite in2="shadowGaussian" operator="atop" in="SourceAlpha" result="shadowComposite" />
      <feColorMatrix type="matrix" values="0 0 0 0 0  0 0 0 0 0  0 0 0 0 0  0 0 0 0.698039215686274 0  " in="shadowComposite" />
    </filter>
    <g id="widget27">
      <path d="M 56.5 192  C 69.66 192  80 202.56  80 216  C 80 229.44  69.66 240  56.5 240  C 43.34 240  33 229.44  33 216  C 33 202.56  43.34 192  56.5 192  Z " fill-rule="nonzero" fill="#009dd9" stroke="none" />
      <path d="M 56.5 192.5  C 69.38 192.5  79.5 202.84  79.5 216  C 79.5 229.16  69.38 239.5  56.5 239.5  C 43.62 239.5  33.5 229.16  33.5 216  C 33.5 202.84  43.62 192.5  56.5 192.5  Z " stroke-width="1" stroke="#ffffff" fill="none" />
    </g>
  </defs>
  <g transform="matrix(1 0 0 1 -29 -188 )">
    <use xlink:href="#widget27" filter="url(#filter26)" />
    <use xlink:href="#widget27" />
  </g>
</svg>