<?xml version="1.0" encoding="utf-8"?>
<svg version="1.1" xmlns:xlink="http://www.w3.org/1999/xlink" width="27px" height="28px" xmlns="http://www.w3.org/2000/svg">
  <defs>
    <filter x="2px" y="107px" width="27px" height="28px" filterUnits="userSpaceOnUse" id="filter41">
      <feOffset dx="1" dy="1" in="SourceAlpha" result="shadowOffsetInner" />
      <feGaussianBlur stdDeviation="2.5" in="shadowOffsetInner" result="shadowGaussian" />
      <feComposite in2="shadowGaussian" operator="atop" in="SourceAlpha" result="shadowComposite" />
      <feColorMatrix type="matrix" values="0 0 0 0 0  0 0 0 0 0  0 0 0 0 0  0 0 0 0.698039215686274 0  " in="shadowComposite" />
    </filter>
    <g id="widget42">
      <path d="M 14.5 128.170901058209  C 11.3 123.98978526659  6.5 121.481115791619  6.5 117.3  C 6.5 115.145714285714  8.1 111.5  14.5 111.5  C 20.9 111.5  22.5 115.145714285714  22.5 117.3  C 22.5 121.481115791619  17.7 123.98978526659  14.5 128.170901058209  Z " fill-rule="nonzero" fill="#d9001b" stroke="none" />
      <path d="M 14.5 129  C 11.1 124.5  6 121.8  6 117.3  C 6 114.96  7.7 111  14.5 111  C 21.3 111  23 114.96  23 117.3  C 23 121.8  17.9 124.5  14.5 129  Z M 14.5 127.341802116418  C 17.5 123.47957053318  22 121.162231583238  22 117.3  C 22 115.331428571429  20.5 112  14.5 112  C 8.5 112  7 115.331428571429  7 117.3  C 7 121.162231583238  11.5 123.47957053318  14.5 127.341802116418  Z " fill-rule="nonzero" fill="#ffffff" stroke="none" />
    </g>
  </defs>
  <g transform="matrix(1 0 0 1 -2 -107 )">
    <use xlink:href="#widget42" filter="url(#filter41)" />
    <use xlink:href="#widget42" />
  </g>
</svg>