<?xml version="1.0" encoding="utf-8"?>
<svg version="1.1" xmlns:xlink="http://www.w3.org/1999/xlink" width="47px" height="23px" xmlns="http://www.w3.org/2000/svg">
  <defs>
    <mask fill="white" id="clip45">
      <path d="M 0 18  L 0 5  C 0 2.20000000000005  2.58499999999999 0  5.875 0  L 11.0449999999974 0  L 41.125 0  C 44.415 0  47 2.20000000000005  47 5  L 47 18  C 47 20.8  44.415 23  41.125 23  L 5.875 23  C 2.58499999999999 23  0 20.8  0 18  Z " fill-rule="evenodd" />
    </mask>
  </defs>
  <g transform="matrix(1 0 0 1 -128 -906 )">
    <path d="M 0 18  L 0 5  C 0 2.20000000000005  2.58499999999999 0  5.875 0  L 11.0449999999974 0  L 41.125 0  C 44.415 0  47 2.20000000000005  47 5  L 47 18  C 47 20.8  44.415 23  41.125 23  L 5.875 23  C 2.58499999999999 23  0 20.8  0 18  Z " fill-rule="nonzero" fill="#ffffff" stroke="none" transform="matrix(1 0 0 1 128 906 )" />
    <path d="M 0 18  L 0 5  C 0 2.20000000000005  2.58499999999999 0  5.875 0  L 11.0449999999974 0  L 41.125 0  C 44.415 0  47 2.20000000000005  47 5  L 47 18  C 47 20.8  44.415 23  41.125 23  L 5.875 23  C 2.58499999999999 23  0 20.8  0 18  Z " stroke-width="2" stroke="#797979" fill="none" transform="matrix(1 0 0 1 128 906 )" mask="url(#clip45)" />
  </g>
</svg>