<?xml version="1.0" encoding="utf-8"?>
<svg version="1.1" xmlns:xlink="http://www.w3.org/1999/xlink" width="52px" height="56px" xmlns="http://www.w3.org/2000/svg">
  <defs>
    <filter x="9px" y="1001px" width="52px" height="56px" filterUnits="userSpaceOnUse" id="filter46">
      <feOffset dx="1" dy="1" in="SourceAlpha" result="shadowOffsetInner" />
      <feGaussianBlur stdDeviation="2.5" in="shadowOffsetInner" result="shadowGaussian" />
      <feComposite in2="shadowGaussian" operator="atop" in="SourceAlpha" result="shadowComposite" />
      <feColorMatrix type="matrix" values="0 0 0 0 0  0 0 0 0 0  0 0 0 0 0  0 0 0 0.698039215686274 0  " in="shadowComposite" />
    </filter>
    <g id="widget47">
      <path d="M 34 1005  C 45.76 1005  55 1015.12  55 1028  C 55 1040.88  45.76 1051  34 1051  C 22.24 1051  13 1040.88  13 1028  C 13 1015.12  22.24 1005  34 1005  Z " fill-rule="nonzero" fill="#009dd9" stroke="none" />
      <path d="M 34 1005.5  C 45.48 1005.5  54.5 1015.4  54.5 1028  C 54.5 1040.6  45.48 1050.5  34 1050.5  C 22.52 1050.5  13.5 1040.6  13.5 1028  C 13.5 1015.4  22.52 1005.5  34 1005.5  Z " stroke-width="1" stroke="#ffffff" fill="none" />
    </g>
  </defs>
  <g transform="matrix(1 0 0 1 -9 -1001 )">
    <use xlink:href="#widget47" filter="url(#filter46)" />
    <use xlink:href="#widget47" />
  </g>
</svg>