<?xml version="1.0" encoding="utf-8"?>
<svg version="1.1" xmlns:xlink="http://www.w3.org/1999/xlink" width="22px" height="23px" xmlns="http://www.w3.org/2000/svg">
  <g transform="matrix(1 0 0 1 -3 -255 )">
    <path d="M 2.94170673076923 9.61328125  C 3.77463942307692 10.4518229166667  4.8125 11.0158420138889  6.05528846153846 11.3053385416667  C 5.40304487179487 9.68815104166667  5.07692307692308 7.83637152777778  5.07692307692308 5.75  L 1.69230769230769 5.75  L 1.69230769230769 7.1875  C 1.69230769230769 7.96614583333333  2.10877403846154 8.77473958333333  2.94170673076923 9.61328125  Z M 19.0582932692308 9.61328125  C 19.8912259615385 8.77473958333333  20.3076923076923 7.96614583333333  20.3076923076923 7.1875  L 20.3076923076923 5.75  L 16.9230769230769 5.75  C 16.9230769230769 7.83637152777778  16.5969551282051 9.68815104166667  15.9447115384615 11.3053385416667  C 17.1875 11.0158420138889  18.2253605769231 10.4518229166667  19.0582932692308 9.61328125  Z M 21.6298076923077 4.25260416666667  C 21.8766025641026 4.53211805555555  22 4.87152777777778  22 5.27083333333333  L 22 7.1875  C 22 7.89626736111111  21.8171073717949 8.61002604166667  21.4513221153846 9.32877604166667  C 21.0855368589744 10.0475260416667  20.5919471153846 10.6963975694444  19.9705528846154 11.275390625  C 19.3491586538462 11.8543836805556  18.5867387820513 12.3410373263889  17.6832932692308 12.7353515625  C 16.7798477564103 13.1296657986111  15.8301282051282 13.3517795138889  14.8341346153846 13.4016927083333  C 14.4639423076923 13.9407552083333  14.0452724358974 14.4149305555556  13.578125 14.82421875  C 13.2431891025641 15.1636284722222  13.0118189102564 15.5254991319444  12.8840144230769 15.9098307291667  C 12.7562099358974 16.2941623263889  12.6923076923077 16.7408854166667  12.6923076923077 17.25  C 12.6923076923077 17.7890625  12.8267227564103 18.2432725694444  13.0955528846154 18.6126302083333  C 13.3643830128205 18.9819878472222  13.7940705128205 19.1666666666667  14.3846153846154 19.1666666666667  C 15.0456730769231 19.1666666666667  15.6340144230769 19.3937717013889  16.1496394230769 19.8479817708333  C 16.6652644230769 20.3021918402778  16.9230769230769 20.8736979166667  16.9230769230769 21.5625  L 16.9230769230769 22.5208333333333  C 16.9230769230769 22.6605902777778  16.8834134615385 22.775390625  16.8040865384615 22.865234375  C 16.7247596153846 22.955078125  16.6233974358974 23  16.5 23  L 5.5 23  C 5.37660256410256 23  5.27524038461539 22.955078125  5.19591346153846 22.865234375  C 5.11658653846154 22.775390625  5.07692307692308 22.6605902777778  5.07692307692308 22.5208333333333  L 5.07692307692308 21.5625  C 5.07692307692308 20.8736979166667  5.33473557692308 20.3021918402778  5.85036057692308 19.8479817708333  C 6.36598557692308 19.3937717013889  6.95432692307692 19.1666666666667  7.61538461538462 19.1666666666667  C 8.20592948717949 19.1666666666667  8.63561698717949 18.9819878472222  8.90444711538462 18.6126302083333  C 9.17327724358974 18.2432725694444  9.30769230769231 17.7890625  9.30769230769231 17.25  C 9.30769230769231 16.7408854166667  9.24379006410256 16.2941623263889  9.11598557692308 15.9098307291667  C 8.98818108974359 15.5254991319444  8.7568108974359 15.1636284722222  8.421875 14.82421875  C 7.95472756410256 14.4149305555556  7.53605769230769 13.9407552083333  7.16586538461539 13.4016927083333  C 6.1698717948718 13.3517795138889  5.22015224358974 13.1296657986111  4.31670673076923 12.7353515625  C 3.41326121794872 12.3410373263889  2.65084134615385 11.8543836805556  2.02944711538462 11.275390625  C 1.40805288461538 10.6963975694444  0.914463141025641 10.0475260416667  0.548677884615385 9.32877604166667  C 0.182892628205128 8.61002604166667  0 7.89626736111111  0 7.1875  L 0 5.27083333333333  C 0 4.87152777777778  0.123397435897436 4.53211805555555  0.370192307692308 4.25260416666667  C 0.61698717948718 3.97309027777778  0.916666666666667 3.83333333333333  1.26923076923077 3.83333333333333  L 5.07692307692308 3.83333333333333  L 5.07692307692308 2.39583333333333  C 5.07692307692308 1.73697916666667  5.28405448717949 1.17296006944444  5.69831730769231 0.703776041666668  C 6.11258012820513 0.234592013888887  6.61057692307692 0  7.19230769230769 0  L 14.8076923076923 0  C 15.3894230769231 0  15.8874198717949 0.234592013888887  16.3016826923077 0.703776041666668  C 16.7159455128205 1.17296006944444  16.9230769230769 1.73697916666667  16.9230769230769 2.39583333333333  L 16.9230769230769 3.83333333333333  L 20.7307692307692 3.83333333333333  C 21.0833333333333 3.83333333333333  21.3830128205128 3.97309027777778  21.6298076923077 4.25260416666667  Z " fill-rule="nonzero" fill="#d9001b" stroke="none" transform="matrix(1 0 0 1 3 255 )" />
  </g>
</svg>