<?xml version="1.0" encoding="utf-8"?>
<svg version="1.1" xmlns:xlink="http://www.w3.org/1999/xlink" width="49px" height="71px" xmlns="http://www.w3.org/2000/svg">
  <g transform="matrix(1 0 0 1 -9 -457 )">
    <path d="M 36.8776041666667 2.69419642857143  L 46.8307291666667 15.0558035714286  C 47.4262152777778 15.7953869047619  47.9366319444445 16.7991071428571  48.3619791666667 18.0669642857143  C 48.7873263888889 19.3348214285714  49 20.4970238095238  49 21.5535714285714  L 49 67.1964285714286  C 49 68.2529761904762  48.7022569444444 69.1510416666667  48.1067708333333 69.890625  C 47.5112847222222 70.6302083333333  46.7881944444445 71  45.9375 71  L 3.0625 71  C 2.21180555555556 71  1.48871527777778 70.6302083333333  0.893229166666667 69.890625  C 0.297743055555556 69.1510416666667  0 68.2529761904762  0 67.1964285714286  L 0 3.80357142857143  C 0 2.74702380952381  0.297743055555556 1.84895833333333  0.893229166666667 1.109375  C 1.48871527777778 0.369791666666669  2.21180555555556 0  3.0625 0  L 31.6458333333333 0  C 32.4965277777778 0  33.4322916666667 0.264136904761908  34.453125 0.792410714285715  C 35.4739583333333 1.32068452380952  36.2821180555556 1.95461309523809  36.8776041666667 2.69419642857143  Z M 33.974609375 6.26004464285715  C 33.7194010416667 5.94308035714285  33.2834201388889 5.65252976190475  32 5.38839285714285  L 32 21  L 44.6614583333333 21  C 44.4487847222222 19.5197172619048  44.21484375 18.9782366071429  43.9596354166667 18.6612723214286  L 33.974609375 6.26004464285715  Z M 4 66  L 45 66  L 45 26  L 31.6458333333333 26  C 30.7951388888889 25.3571428571429  30.0720486111111 24.9873511904762  29.4765625 24.2477678571429  C 28.8810763888889 23.5081845238095  28.5833333333333 22.610119047619  28 21.5535714285714  L 28 5  L 4 5  L 4 66  Z M 23.8619791666667 33.00390625  C 25.0316840277778 37.3357514880952  26.5842013888889 40.4789806547619  28.51953125 42.43359375  C 29.2213541666667 43.120349702381  30.1145833333333 43.8599330357143  31.19921875 44.65234375  C 32.4539930555556 44.4674479166667  33.6981336805556 44.375  34.931640625 44.375  C 38.0579427083333 44.375  39.9401041666667 45.0221354166667  40.578125 46.31640625  C 40.9184027777778 46.8975074404762  40.9396701388889 47.5842633928571  40.6419270833333 48.3766741071429  C 40.6419270833333 48.403087797619  40.6312934027778 48.4295014880952  40.6100260416667 48.4559151785714  L 40.5462239583333 48.53515625  L 40.5462239583333 48.5747767857143  C 40.4186197916667 49.5784970238095  39.6636284722222 50.0803571428571  38.28125 50.0803571428571  C 37.2604166666667 50.0803571428571  36.0375434027778 49.8162202380952  34.6126302083333 49.2879464285714  C 33.1877170138889 48.7596726190476  31.8053385416667 48.0597098214286  30.4654947916667 47.1880580357143  C 25.7654079861111 47.8219866071429  21.5970052083333 48.9181547619048  17.9602864583333 50.4765625  C 14.7063802083333 57.3969494047619  12.1330295138889 60.8571428571429  10.240234375 60.8571428571429  C 9.92122395833333 60.8571428571429  9.62348090277778 60.7646949404762  9.34700520833333 60.5797991071429  L 8.58138020833333 60.1043526785714  C 8.56011284722222 60.0779389880952  8.49631076388889 60.0119047619048  8.38997395833333 59.90625  C 8.17730034722222 59.6421130952381  8.11349826388889 59.1666666666667  8.19856770833333 58.4799107142857  C 8.38997395833333 57.4233630952381  8.98546006944444 56.2149367559524  9.98502604166667 54.8546316964286  C 10.9845920138889 53.4943266369048  12.3882378472222 52.2198660714286  14.1959635416667 51.03125  C 14.4937065972222 50.7935267857143  14.73828125 50.8727678571429  14.9296875 51.2689732142857  C 14.9722222222222 51.3218005952381  14.9934895833333 51.3746279761905  14.9934895833333 51.4274553571429  C 16.0993923611111 49.1822916666667  17.2371961805556 46.5805431547619  18.4069010416667 43.6222098214286  C 19.8530815972222 40.0299479166667  20.958984375 36.5697544642857  21.724609375 33.2416294642857  C 21.2141927083333 31.0757068452381  20.8898654513889 28.9692150297619  20.7516276041667 26.9221540178571  C 20.6133897569444 24.8750930059524  20.6825086805556 23.1912202380952  20.958984375 21.8705357142857  C 21.1929253472222 20.8139880952381  21.6395399305556 20.2857142857143  22.298828125 20.2857142857143  L 22.96875 20.2857142857143  L 23.0006510416667 20.2857142857143  C 23.4898003472222 20.2857142857143  23.8619791666667 20.4838169642857  24.1171875 20.8800223214286  C 24.5 21.4347098214286  24.595703125 22.332775297619  24.404296875 23.57421875  C 24.3617621527778 23.7327008928571  24.3192274305556 23.8383556547619  24.2766927083333 23.8911830357143  C 24.2979600694444 23.9704241071429  24.30859375 24.0760788690476  24.30859375 24.2081473214286  L 24.30859375 25.3967633928571  C 24.2660590277778 28.6456473214286  24.1171875 31.1813616071429  23.8619791666667 33.00390625  Z M 11.7236328125 55.7857142857143  C 10.9473741319444 56.9479166666667  10.4210069444444 57.9252232142857  10.14453125 58.7176339285714  C 11.2504340277778 58.0837053571429  12.7072482638889 55.9970238095238  14.5149739583333 52.4575892857143  C 13.4303385416667 53.5141369047619  12.4998914930556 54.6235119047619  11.7236328125 55.7857142857143  Z M 22.8411458333333 22.1875  L 22.8411458333333 22.2667410714286  C 22.5221354166667 23.3761160714286  22.5008680555556 25.1194196428571  22.77734375 27.4966517857143  C 22.7986111111111 27.3117559523809  22.873046875 26.7306547619048  23.0006510416667 25.7533482142857  C 23.0006510416667 25.6741071428571  23.0750868055556 25.106212797619  23.2239583333333 24.0496651785714  C 23.2452256944444 23.9440104166667  23.2877604166667 23.8383556547619  23.3515625 23.7327008928571  C 23.3302951388889 23.7062872023809  23.3196614583333 23.6798735119048  23.3196614583333 23.6534598214286  C 23.2983940972222 23.6006324404762  23.2877604166667 23.5610119047619  23.2877604166667 23.5345982142857  C 23.2664930555556 22.9534970238095  23.1282552083333 22.4780505952381  22.873046875 22.1082589285714  C 22.873046875 22.1346726190476  22.8624131944444 22.1610863095238  22.8411458333333 22.1875  Z M 20.3209635416667 45.1674107142857  C 19.6829427083333 46.6465773809524  19.2044270833333 47.7427455357143  18.8854166666667 48.4559151785714  C 21.7565104166667 47.0295758928571  24.7764756944444 45.9598214285714  27.9453125 45.2466517857143  C 27.9027777777778 45.2202380952381  27.7645399305556 45.0947730654762  27.5305989583333 44.8702566964286  C 27.2966579861111 44.645740327381  27.1265190972222 44.4674479166667  27.0201822916667 44.3353794642857  C 25.4038628472222 42.565662202381  24.0533854166667 40.2412574404762  22.96875 37.3621651785714  C 22.39453125 39.6337425595238  21.5119357638889 42.2354910714286  20.3209635416667 45.1674107142857  Z M 39.5572916666667 47.9408482142857  C 39.5572916666667 47.9144345238095  39.5360243055556 47.8748139880952  39.4934895833333 47.8219866071429  C 38.9830729166667 47.1880580357143  37.4943576388889 46.87109375  35.02734375 46.87109375  C 36.6436631944445 47.6106770833333  37.9622395833333 47.98046875  38.9830729166667 47.98046875  C 39.2808159722222 47.98046875  39.4722222222222 47.9672619047619  39.5572916666667 47.9408482142857  Z " fill-rule="nonzero" fill="#000000" stroke="none" transform="matrix(1 0 0 1 9 457 )" />
  </g>
</svg>