<?xml version="1.0" encoding="utf-8"?>
<svg version="1.1" xmlns:xlink="http://www.w3.org/1999/xlink" width="48px" height="54px" xmlns="http://www.w3.org/2000/svg">
  <g transform="matrix(1 0 0 1 -56 -803 )">
    <path d="M 36.125 2.04910714285714  L 45.875 11.4508928571429  C 46.4583333333333 12.0133928571429  46.9583333333333 12.7767857142857  47.375 13.7410714285714  C 47.7916666666667 14.7053571428571  48 15.5892857142857  48 16.3928571428571  L 48 51.1071428571429  C 48 51.9107142857143  47.7083333333333 52.59375  47.125 53.15625  C 46.5416666666667 53.71875  45.8333333333333 54  45 54  L 3 54  C 2.16666666666667 54  1.45833333333333 53.71875  0.875 53.15625  C 0.291666666666667 52.59375  0 51.9107142857143  0 51.1071428571429  L 0 2.89285714285714  C 0 2.08928571428571  0.291666666666667 1.40625  0.875 0.84375  C 1.45833333333333 0.281250000000002  2.16666666666667 0  3 0  L 31 0  C 31.8333333333333 0  32.75 0.200892857142859  33.75 0.602678571428572  C 34.75 1.00446428571429  35.5416666666667 1.48660714285714  36.125 2.04910714285714  Z M 33.28125 4.76116071428572  C 33.03125 4.52008928571428  32.6041666666667 4.29910714285714  32 4.09821428571428  L 32 16  L 43.75 16  C 43.5416666666667 14.8459821428571  43.3125 14.4341517857143  43.0625 14.1930803571429  L 33.28125 4.76116071428572  Z M 4 50  L 44 50  L 44 20  L 31 20  C 30.1666666666667 19.2857142857143  29.4583333333333 19.0044642857143  28.875 18.4419642857143  C 28.2916666666667 17.8794642857143  28 17.1964285714286  28 16.3928571428571  L 28 4  L 4 4  L 4 50  Z M 23.375 25.1015625  C 24.5208333333333 28.3962053571429  26.0416666666667 30.7868303571429  27.9375 32.2734375  C 28.625 32.7957589285714  29.5 33.3582589285714  30.5625 33.9609375  C 31.7916666666667 33.8203125  33.0104166666667 33.75  34.21875 33.75  C 37.28125 33.75  39.125 34.2421875  39.75 35.2265625  C 40.0833333333333 35.6685267857143  40.1041666666667 36.1908482142857  39.8125 36.7935267857143  C 39.8125 36.8136160714286  39.8020833333333 36.8337053571429  39.78125 36.8537946428571  L 39.71875 36.9140625  L 39.71875 36.9441964285714  C 39.59375 37.7075892857143  38.8541666666667 38.0892857142857  37.5 38.0892857142857  C 36.5 38.0892857142857  35.3020833333333 37.8883928571429  33.90625 37.4866071428571  C 32.5104166666667 37.0848214285714  31.15625 36.5524553571429  29.84375 35.8895089285714  C 25.2395833333333 36.3716517857143  21.15625 37.2053571428571  17.59375 38.390625  C 14.40625 43.6540178571429  11.8854166666667 46.2857142857143  10.03125 46.2857142857143  C 9.71875 46.2857142857143  9.42708333333333 46.2154017857143  9.15625 46.0747767857143  L 8.40625 45.7131696428571  C 8.38541666666667 45.6930803571429  8.32291666666667 45.6428571428571  8.21875 45.5625  C 8.01041666666667 45.3616071428571  7.94791666666667 45  8.03125 44.4776785714286  C 8.21875 43.6741071428571  8.80208333333333 42.7550223214286  9.78125 41.7204241071429  C 10.7604166666667 40.6858258928571  12.1354166666667 39.7165178571429  13.90625 38.8125  C 14.1979166666667 38.6316964285714  14.4375 38.6919642857143  14.625 38.9933035714286  C 14.6666666666667 39.0334821428571  14.6875 39.0736607142857  14.6875 39.1138392857143  C 15.7708333333333 37.40625  16.8854166666667 35.4274553571429  18.03125 33.1774553571429  C 19.4479166666667 30.4453125  20.53125 27.8136160714286  21.28125 25.2823660714286  C 20.78125 23.6350446428571  20.4635416666667 22.0329241071429  20.328125 20.4760044642857  C 20.1927083333333 18.9190848214286  20.2604166666667 17.6383928571429  20.53125 16.6339285714286  C 20.7604166666667 15.8303571428571  21.1979166666667 15.4285714285714  21.84375 15.4285714285714  L 22.5 15.4285714285714  L 22.53125 15.4285714285714  C 23.0104166666667 15.4285714285714  23.375 15.5792410714286  23.625 15.8805803571429  C 24 16.3024553571429  24.09375 16.9854910714286  23.90625 17.9296875  C 23.8645833333333 18.0502232142857  23.8229166666667 18.1305803571429  23.78125 18.1707589285714  C 23.8020833333333 18.2310267857143  23.8125 18.3113839285714  23.8125 18.4118303571429  L 23.8125 19.3158482142857  C 23.7708333333333 21.7868303571429  23.625 23.7154017857143  23.375 25.1015625  Z M 11.484375 42.4285714285714  C 10.7239583333333 43.3125  10.2083333333333 44.0558035714286  9.9375 44.6584821428571  C 11.0208333333333 44.1763392857143  12.4479166666667 42.5892857142857  14.21875 39.8973214285714  C 13.15625 40.7008928571429  12.2447916666667 41.5446428571429  11.484375 42.4285714285714  Z M 22.375 16.875  L 22.375 16.9352678571429  C 22.0625 17.7790178571429  22.0416666666667 19.1049107142857  22.3125 20.9129464285714  C 22.3333333333333 20.7723214285714  22.40625 20.3303571428571  22.53125 19.5870535714286  C 22.53125 19.5267857142857  22.6041666666667 19.0948660714286  22.75 18.2912946428571  C 22.7708333333333 18.2109375  22.8125 18.1305803571429  22.875 18.0502232142857  C 22.8541666666667 18.0301339285714  22.84375 18.0100446428571  22.84375 17.9899553571429  C 22.8229166666667 17.9497767857143  22.8125 17.9196428571429  22.8125 17.8995535714286  C 22.7916666666667 17.4575892857143  22.65625 17.0959821428571  22.40625 16.8147321428571  C 22.40625 16.8348214285714  22.3958333333333 16.8549107142857  22.375 16.875  Z M 19.90625 34.3526785714286  C 19.28125 35.4776785714286  18.8125 36.3113839285714  18.5 36.8537946428571  C 21.3125 35.7689732142857  24.2708333333333 34.9553571428571  27.375 34.4129464285714  C 27.3333333333333 34.3928571428571  27.1979166666667 34.2974330357143  26.96875 34.1266741071429  C 26.7395833333333 33.9559151785714  26.5729166666667 33.8203125  26.46875 33.7198660714286  C 24.8854166666667 32.3738839285714  23.5625 30.6060267857143  22.5 28.4162946428571  C 21.9375 30.1439732142857  21.0729166666667 32.1227678571429  19.90625 34.3526785714286  Z M 38.75 36.4620535714286  C 38.75 36.4419642857143  38.7291666666667 36.4118303571429  38.6875 36.3716517857143  C 38.1875 35.8895089285714  36.7291666666667 35.6484375  34.3125 35.6484375  C 35.8958333333333 36.2109375  37.1875 36.4921875  38.1875 36.4921875  C 38.4791666666667 36.4921875  38.6666666666667 36.4821428571429  38.75 36.4620535714286  Z " fill-rule="nonzero" fill="#000000" stroke="none" transform="matrix(1 0 0 1 56 803 )" />
  </g>
</svg>